<svg width="291" height="294" fill="none" xmlns="http://www.w3.org/2000/svg"><mask id="a" style="mask-type:alpha" maskUnits="userSpaceOnUse" x="0" y="0" width="291" height="294"><path fill="#fff" d="M0 0h291v294H0z"/></mask><g mask="url(#a)"><path d="M29.287 106.965c20.429-18.156 52.844-28.142 70.21-49.364 17.365-21.223 37.369-36.417 73.932-25.464 36.563 10.954 36.021 39.373 46.987 56.994 10.966 17.621 59.869 27.426 57.089 72.595-2.78 45.169-33.828 45.085-47.981 56.213-14.153 11.128-36.485 63.675-81.157 64.223-54.773.672-88.168-22.442-117.216-56.664-34.318-40.438-22.294-100.376-1.864-118.533z" fill="#EEF"/><path opacity=".3" d="M154.575 7.494V7.17h-.243l-.067.234.31.089zm8.369 0 .31-.09-.067-.233h-.243v.323zm.067.233.31-.089-.31.09zm1.885 6.558-.31.09.05.173.174.048.086-.31zm4.758 1.94-.155.283.157.086.156-.088-.158-.281zm6.003-3.371-.158-.282.158.282zm.212-.12.227-.229-.173-.171-.212.12.158.28zm.173.171-.227.23.227-.23zm5.535 5.474-.227.23.227-.23zm.175.173.281.159.121-.215-.175-.173-.227.23zm-.121.215-.281-.159.281.159zm-3.355 5.96-.281-.159-.089.159.089.158.281-.159zm1.962 4.703-.31.088.049.173.173.05.088-.311zm6.645 1.887-.088.31.088-.31zm.234.067h.323v-.244l-.235-.067-.088.31zm0 8.233.088.31.235-.066v-.244h-.323zm-.234.066-.088-.31.088.31zm-6.643 1.887-.089-.31-.174.049-.048.175.311.086zm-1.926 4.703-.282-.157-.087.158.088.157.281-.158zm3.356 5.96-.281.159.281-.159zm.121.215.227.23.175-.174-.121-.214-.281.158zm-.175.173-.227-.23.227.23zm-5.535 5.474-.227-.23.227.23zm-.171.17-.156.282.211.116.172-.17-.227-.229zm-.211-.117-.156.283.156-.283zm-6.043-3.322.156-.283-.156-.085-.156.086.156.282zm-4.792 1.96-.086-.31-.174.048-.05.173.31.09zm-1.885 6.558.31.09-.31-.09zm-.067.234v.322h.243l.067-.233-.31-.09zm-8.337 0-.31.088.067.234h.243v-.322zm-.067-.234.31-.09-.31.09zm-1.885-6.577.31-.089-.05-.174-.174-.048-.086.311zm-4.779-1.941.156-.283-.156-.085-.155.085.155.283zm-6.043 3.322.156.283-.156-.283zm-.211.116-.227.23.171.169.212-.116-.156-.283zm-.171-.17-.227.23.227-.23zm-5.535-5.473.227-.23-.227.23zm-.176-.174-.28-.159-.122.215.175.174.227-.23zm.122-.214.281.159-.281-.16zm3.38-5.96.281.16.09-.16-.089-.158-.282.158zm-1.961-4.703.31-.088-.049-.173-.173-.05-.088.311zm-6.645-1.887-.088.31.088-.31zm-.234-.066h-.323v.244l.234.066.089-.31zm0-8.235-.087-.311-.236.066v.245h.323zm.236-.066-.086-.31.086.31zm6.617-1.836.087.311.174-.048.05-.174-.311-.089zm1.962-4.702.281.159.089-.159-.089-.158-.281.158zm-3.355-5.96-.281.159.281-.159zm-.121-.215-.227-.23-.176.174.122.215.281-.159zm.175-.173.227.23-.227-.23zm5.555-5.473.226.23-.226-.23zm.171-.169.155-.283-.21-.116-.172.17.227.229zm.211.116.155-.283-.155.283zm6.042 3.322-.155.283.156.085.155-.085-.156-.283zm4.76-1.94.086.31.174-.048.05-.174-.31-.089zm1.885-6.559-.31-.089.31.09zm-1.315 6.91-.31-.088.31.089zm1.868-6.498v-.323h-.243l-.067.234.31.09zm-1.918 6.674.084.311.176-.047.05-.175-.31-.09zm-.176.047-.084-.311.084.311zm-4.945 2.016-.158-.281.158.281zm-.156.088-.156.283.157.086.157-.088-.158-.281zm-.157-.086-.156.282.156-.282zm-5.989-3.293.156-.283-.211-.115-.171.168.226.23zm-5.207 5.132-.226-.23-.176.173.121.215.281-.158zm3.324 5.904.281-.159-.281.159zm.09.16.28.16.091-.159-.09-.16-.281.159zm-.091.159.28.16-.28-.16zm-2.04 4.889-.311-.086.311.086zm-.049.176.087.31.176-.048.049-.176-.312-.086zm-.176.049-.086-.311.086.31zm-6.556 1.819-.086-.311-.237.065v.246h.323zm0 7.256h-.323v.244l.235.067.088-.311zm6.584 1.87-.088.31.088-.31zm.175.05.311-.087-.049-.175-.174-.05-.088.311zm.048.174.311-.086-.311.086zm2.039 4.89.28-.161-.28.16zm.092.159.281.16.091-.161-.092-.16-.28.16zm-.091.16.281.16-.281-.16zm-3.348 5.904-.281-.16-.122.216.176.173.227-.229zm5.187 5.13-.227.23.172.17.211-.117-.156-.283zm5.988-3.292-.155-.282.155.282zm.157-.086.158-.281-.156-.088-.157.086.155.283zm.157.088-.158.281.158-.281zm4.963 2.016.084-.312-.084.312zm.177.047.31-.09-.05-.175-.177-.047-.083.312zm.05.175-.31.09.31-.09zm1.868 6.518-.31.09.067.233h.243v-.323zm7.365 0v.323h.243l.067-.234-.31-.089zm1.868-6.498-.31-.09.31.09zm.05-.175-.084-.312-.176.047-.05.175.31.09zm.176-.048-.084-.311.084.311zm4.977-2.035.158.281-.158-.28zm.156-.088.156-.283-.158-.086-.156.088.158.28zm.157.086.156-.282-.156.282zm5.988 3.292-.155.283.211.116.171-.17-.227-.229zm5.189-5.13.227.229.175-.173-.121-.215-.281.159zm-3.324-5.905.281-.158-.281.158zm-.089-.159-.281-.159-.09.159.089.159.282-.159zm.089-.158-.28-.16.28.16zm2.001-4.888-.311-.084.311.084zm.048-.177-.088-.31-.177.05-.047.176.312.084zm.176-.05.088.31-.088-.31zm6.584-1.87.088.31.235-.066v-.244h-.323zm0-7.258h.323v-.244l-.235-.066-.088.31zm-6.584-1.87-.088.31.088-.31zm-.175-.05-.311.086.048.176.175.05.088-.311zm-.048-.175.311-.085-.311.085zm-2.039-4.887.279-.162-.279.162zm-.092-.16-.281-.158-.09.16.091.16.28-.162zm.09-.16-.281-.158.281.158zm3.324-5.904.281.158.121-.215-.175-.173-.227.23zm-5.187-5.13.227-.229-.173-.171-.212.12.158.28zm-5.948 3.341.158.281-.158-.281zm-.158.089-.158.281.158.089.158-.089-.158-.281zm-.158-.089-.158.282.158-.282zm-4.945-2.016.084-.311-.084.311zm-.176-.047-.31.089.051.175.175.047.084-.311zm-.05-.175.31-.09-.31.09zm-1.868-6.499.31-.089-.067-.234h-.243v.323zm-13.79 17.336-.227-.23.227.23zm10.082-4.11.005-.323h-.003l-.002.323zm-14.337 14.137-.322-.003v.002l.322.001zm2.361 7.854.269-.178-.269.178zm6.317 5.228.125-.298-.125.298zm8.154.846.061.317-.061-.317zm7.255-3.819-.227-.23.227.23zm3.922-7.203.316.066-.316-.066zm-5.858-14.567-.183.267.183-.267zm-7.811-2.8h-.323l.646.005-.323-.004zm.002-.322.322.002.002-.323-.323-.002-.001.323zm-10.54 4.296.226.23-.226-.23zm-4.447 10.482-.323-.003.323.003zm0 .003-.323-.002v.001h.323zm2.468 8.213.269-.179-.269.179zm6.605 5.466-.124.297.124-.297zm8.526.885-.061-.317.061.317zm11.687-11.524-.316-.066.316.066zm-.76-8.543.3-.12-.3.12zm-5.365-6.688.182-.266-.182.266zm-8.172-2.59.005-.323-.323-.004-.004.323.322.004zm-3.939-13.548h-.243v.645h.243v-.645zm7.883 0h-7.883v.645h7.883v-.645zm.243 0h-.243v.645h.243v-.645zm.377.467-.067-.233-.62.178.067.233.62-.178zm1.886 6.558-1.886-6.558-.62.178 1.885 6.558.621-.178zm4.603 1.746a22.595 22.595 0 0 0-4.827-1.968l-.173.622a21.939 21.939 0 0 1 4.689 1.912l.311-.566zm5.689-3.37-6.003 3.372.316.562 6.003-3.371-.316-.563zm.212-.119-.212.12.316.562.212-.12-.316-.562zm.558.223-.173-.171-.454.459.173.171.454-.459zm5.535 5.473-5.535-5.473-.454.459 5.535 5.473.454-.459zm.175.174-.175-.174-.454.46.175.173.454-.46zm-.066.602.12-.215-.562-.316-.121.215.563.316zm-3.355 5.96 3.355-5.96-.563-.317-3.355 5.96.563.317zm1.991 4.457a21.801 21.801 0 0 0-1.992-4.774l-.562.317a21.144 21.144 0 0 1 1.933 4.633l.621-.176zm6.422 1.665-6.644-1.888-.177.621 6.645 1.887.176-.62zm.234.066-.234-.067-.176.621.234.067.176-.62zm.235.554v-.243h-.645v.243h.645zm0 7.746v-7.746h-.645v7.746h.645zm0 .244v-.244h-.645v.244h.645zm-.469.377.234-.067-.176-.62-.234.066.176.62zm-6.643 1.886 6.643-1.886-.176-.621-6.644 1.887.177.62zm-1.732 4.55a21.842 21.842 0 0 0 1.955-4.774l-.622-.172a21.188 21.188 0 0 1-1.897 4.632l.564.313zm3.355 5.645-3.355-5.96-.563.316 3.356 5.96.562-.316zm.121.215-.121-.215-.562.317.121.214.562-.316zm-.229.56.175-.172-.454-.46-.175.174.454.459zm-5.535 5.474 5.535-5.473-.454-.46-5.535 5.474.454.46zm-.171.17.171-.17-.454-.459-.171.17.454.459zm-.594-.063.211.116.311-.566-.211-.116-.311.566zm-6.042-3.322 6.042 3.322.311-.566-6.042-3.322-.311.566zm-4.55 1.988a22.577 22.577 0 0 0 4.861-1.988l-.312-.565a21.943 21.943 0 0 1-4.722 1.931l.173.622zm-1.662 6.336 1.885-6.558-.62-.178-1.885 6.558.62.178zm-.067.234.067-.234-.62-.178-.067.233.62.179zm-.553.233h.243v-.645h-.243v.645zm-7.851 0h7.851v-.645h-7.851v.645zm-.243 0h.243v-.645h-.243v.645zm-.377-.467.067.233.62-.177-.067-.234-.62.178zm-1.885-6.577 1.885 6.577.62-.178-1.885-6.577-.62.178zm-4.624-1.747a22.56 22.56 0 0 0 4.848 1.97l.172-.623A21.907 21.907 0 0 1 148 54.543l-.311.566zm-5.732 3.322L148 55.109l-.311-.566-6.043 3.322.311.566zm-.211.116.211-.116-.311-.566-.211.116.311.566zm-.554-.223.171.17.454-.46-.171-.169-.454.46zm-5.535-5.473 5.535 5.473.454-.459-5.535-5.473-.454.459zm-.176-.174.176.174.454-.46-.176-.173-.454.459zm.069-.604-.122.215.561.319.122-.215-.561-.319zm3.38-5.96-3.38 5.96.561.319 3.38-5.96-.561-.318zm-1.991-4.454a22.068 22.068 0 0 0 1.99 4.772l.563-.316a21.48 21.48 0 0 1-1.933-4.633l-.62.177zm-6.423-1.665 6.645 1.887.176-.621-6.645-1.887-.176.62zm-.235-.067.235.067.176-.621-.234-.067-.177.621zm-.234-.554v.244h.645v-.244h-.645zm0-7.746v7.746h.645v-7.746h-.645zm0-.245v.245h.645v-.245h-.645zm.473-.377-.237.066.173.622.236-.066-.172-.622zm6.617-1.836-6.617 1.836.172.622 6.618-1.836-.173-.622zm1.767-4.549a22.117 22.117 0 0 0-1.991 4.772l.621.177a21.475 21.475 0 0 1 1.932-4.632l-.562-.317zm-3.355-5.643 3.355 5.96.562-.317-3.355-5.96-.562.317zm-.121-.215.121.215.562-.317-.121-.215-.562.317zm.23-.562-.176.174.453.46.176-.174-.453-.46zm5.554-5.473-5.554 5.473.453.46 5.554-5.473-.453-.46zm.171-.169-.171.169.453.46.171-.17-.453-.459zm.593.063-.211-.116-.311.566.211.116.311-.566zm6.043 3.322-6.043-3.322-.311.566 6.043 3.322.311-.566zm4.517-1.969a22.57 22.57 0 0 0-4.828 1.97l.311.565a21.908 21.908 0 0 1 4.69-1.913l-.173-.622zm1.662-6.336-1.885 6.558.62.178 1.885-6.558-.62-.178zm.067-.233-.067.233.62.178.067-.233-.62-.178zm-.762 7.322 1.868-6.499-.62-.178-1.868 6.498.62.179zm-.05.175.05-.175-.62-.178-.05.175.62.178zm-.402.27.176-.048-.168-.623-.176.048.168.623zm-4.871 1.986a21.262 21.262 0 0 1 4.871-1.986l-.168-.623a21.933 21.933 0 0 0-5.019 2.046l.316.563zm-.156.087.156-.087-.316-.563-.156.087.316.563zm-.471-.085.157.087.311-.566-.157-.086-.311.565zm-5.988-3.292 5.988 3.292.311-.565-5.988-3.292-.311.565zm-4.825 5.079 5.207-5.132-.453-.46-5.207 5.132.453.46zm3.378 5.515-3.323-5.904-.563.317 3.324 5.904.562-.317zm.09.16-.09-.16-.562.317.09.16.562-.317zm-.092.478.091-.159-.56-.321-.091.16.56.32zm-2.009 4.814a20.8 20.8 0 0 1 2.009-4.814l-.56-.32a21.425 21.425 0 0 0-2.071 4.963l.622.172zm-.048.177.048-.177-.622-.171-.049.176.623.172zm-.401.274.176-.05-.173-.621-.176.049.173.622zm-6.557 1.819 6.557-1.82-.173-.621-6.556 1.819.172.622zm.237 6.945v-7.256h-.646v7.256h.646zm6.349 1.56-6.584-1.87-.176.62 6.584 1.87.176-.62zm.175.049-.175-.05-.176.621.174.05.177-.621zm.271.4-.048-.176-.623.172.049.175.622-.172zm2.008 4.814a20.841 20.841 0 0 1-2.008-4.815l-.622.172a21.425 21.425 0 0 0 2.071 4.964l.559-.321zm.092.16-.092-.16-.559.32.091.16.56-.32zm-.09.48.091-.16-.562-.32-.09.16.561.32zm-3.349 5.903 3.349-5.904-.561-.318-3.349 5.904.561.318zm5.134 4.742-5.187-5.13-.454.459 5.187 5.13.454-.46zm5.606-3.345-5.988 3.292.311.565 5.988-3.292-.311-.565zm.157-.087-.157.087.311.565.157-.086-.311-.566zm.469.089-.156-.087-.315.563.156.087.315-.563zm4.89 1.986a21.274 21.274 0 0 1-4.89-1.986l-.315.563a21.922 21.922 0 0 0 5.038 2.046l.167-.623zm.176.047-.176-.047-.167.623.176.048.167-.624zm.277.398-.05-.175-.62.178.05.175.62-.178zm1.869 6.518-1.869-6.518-.62.178 1.868 6.518.621-.178zm7.054-.234h-7.365v.646h7.365v-.646zm1.558-6.265-1.868 6.499.62.178 1.868-6.498-.62-.179zm.05-.175-.05.175.62.179.05-.175-.62-.179zm.402-.27-.176.048.168.623.176-.047-.168-.623zm4.902-2.004a21.272 21.272 0 0 1-4.902 2.005l.168.623a21.925 21.925 0 0 0 5.051-2.066l-.317-.562zm.157-.088-.157.088.317.562.156-.088-.316-.562zm.471.085-.157-.087-.311.566.157.086.311-.565zm5.988 3.292-5.988-3.292-.311.565 5.988 3.292.311-.565zm4.806-5.078-5.188 5.13.453.46 5.189-5.131-.454-.459zm-3.378-5.517 3.324 5.905.562-.317-3.324-5.904-.562.316zm-.09-.158.09.159.562-.317-.089-.159-.563.317zm.091-.476-.09.158.561.318.09-.158-.561-.318zm1.97-4.813a20.524 20.524 0 0 1-1.97 4.813l.561.318a21.162 21.162 0 0 0 2.032-4.964l-.623-.167zm.047-.177-.047.177.623.167.048-.177-.624-.167zm.4-.277-.176.05.176.621.176-.05-.176-.62zm6.584-1.87-6.584 1.87.176.621 6.584-1.87-.176-.62zm-.235-6.947v7.258h.646v-7.258h-.646zm-6.349-1.56 6.584 1.87.176-.62-6.584-1.87-.176.62zm-.175-.049.175.05.176-.621-.175-.05-.176.621zm-.271-.4.048.175.622-.17-.048-.176-.622.17zm-2.008-4.812a20.53 20.53 0 0 1 2.008 4.812l.622-.171a21.128 21.128 0 0 0-2.071-4.964l-.559.323zm-.092-.16.092.16.559-.323-.091-.159-.56.322zm.089-.48-.09.16.562.318.09-.16-.562-.317zm3.324-5.904-3.324 5.905.562.316 3.324-5.904-.562-.317zm-5.133-4.741 5.187 5.13.454-.46-5.187-5.129-.454.459zm-5.563 3.392 5.948-3.34-.316-.563-5.948 3.34.316.563zm-.158.09.158-.09-.316-.562-.158.088.316.563zm-.474-.09.158.09.316-.564-.158-.088-.316.563zm-4.871-1.985c1.7.458 3.336 1.125 4.871 1.986l.316-.563a21.933 21.933 0 0 0-5.019-2.046l-.168.623zm-.176-.048.176.048.168-.623-.176-.048-.168.623zm-.276-.397.05.175.621-.178-.051-.175-.62.178zm-1.868-6.499 1.868 6.499.62-.178-1.868-6.499-.62.178zm-7.087.234h7.397v-.646h-7.397v.646zm-6.167 17.242a13.95 13.95 0 0 1 9.855-4.017l.003-.645a14.594 14.594 0 0 0-10.311 4.203l.453.46zm-4.158 9.801a13.969 13.969 0 0 1 4.158-9.8l-.453-.46a14.608 14.608 0 0 0-4.35 10.254l.645.006zm2.307 7.672a13.846 13.846 0 0 1-2.307-7.674l-.645-.002a14.487 14.487 0 0 0 2.414 8.033l.538-.356zm6.173 5.109a13.833 13.833 0 0 1-6.173-5.108l-.538.356a14.485 14.485 0 0 0 6.461 5.347l.25-.595zm7.968.827a13.823 13.823 0 0 1-7.968-.827l-.25.595a14.47 14.47 0 0 0 8.34.866l-.122-.634zm7.089-3.731a13.824 13.824 0 0 1-7.089 3.731l.122.634a14.475 14.475 0 0 0 7.421-3.906l-.454-.46zm3.833-7.04a13.833 13.833 0 0 1-3.833 7.04l.454.46a14.484 14.484 0 0 0 4.011-7.368l-.632-.131zm-.71-7.984a13.842 13.842 0 0 1 .71 7.985l.632.131a14.49 14.49 0 0 0-.743-8.356l-.599.24zm-5.015-6.25a13.834 13.834 0 0 1 5.015 6.25l.599-.24a14.477 14.477 0 0 0-5.249-6.543l-.365.533zm-7.635-2.42a13.82 13.82 0 0 1 7.635 2.42l.365-.533a14.468 14.468 0 0 0-7.991-2.533l-.009.645zm.33-.645.001-.322-.645-.003-.002.322.646.003zm-.32-.647a15.24 15.24 0 0 0-10.768 4.39l.453.459a14.595 14.595 0 0 1 10.312-4.203l.003-.646zm-10.768 4.39a15.256 15.256 0 0 0-4.543 10.708l.646.006a14.611 14.611 0 0 1 4.35-10.255l-.453-.46zm-4.543 10.709v.003l.646.004v-.003l-.646-.004zm0 .004a15.142 15.142 0 0 0 2.522 8.392l.538-.357a14.492 14.492 0 0 1-2.414-8.034l-.646-.001zm2.522 8.392a15.122 15.122 0 0 0 6.75 5.585l.249-.595a14.485 14.485 0 0 1-6.461-5.347l-.538.357zm6.75 5.585a15.11 15.11 0 0 0 8.711.905l-.122-.634a14.47 14.47 0 0 1-8.34-.866l-.249.595zm8.711.905a15.119 15.119 0 0 0 7.752-4.08l-.453-.46a14.475 14.475 0 0 1-7.421 3.906l.122.634zm7.752-4.08a15.128 15.128 0 0 0 4.19-7.696l-.632-.13a14.483 14.483 0 0 1-4.011 7.366l.453.46zm4.19-7.696a15.13 15.13 0 0 0-.776-8.728l-.599.24a14.49 14.49 0 0 1 .743 8.357l.632.132zm-.776-8.728a15.126 15.126 0 0 0-5.483-6.834l-.365.532a14.477 14.477 0 0 1 5.249 6.543l.599-.241zm-5.483-6.834a15.111 15.111 0 0 0-8.349-2.646l-.009.645c2.856.037 5.637.918 7.993 2.533l.365-.532zm-8.676-2.328-.005.323.646.008.004-.323-.645-.008zM274.932 135.251l.31-.09-.31.09zm-.068-.236.31-.089-.068-.236-.245.002.003.323zm1.308 4.541-.31.09.049.172.173.049.088-.311zm3.082 1.257-.155.283.155.085.155-.085-.155-.283zm3.966-2.18-.156-.283.156.283zm.211-.116.227-.23-.172-.169-.211.116.156.283zm.171.169-.227.23.227-.23zm3.683 3.641-.226.229.226-.229zm.176.173.281.158.121-.215-.176-.173-.226.23zm-.121.214-.281-.158.281.158zm-2.201 3.915-.281-.158-.089.157.088.157.282-.156zm1.265 3.037-.31.09.05.172.171.049.089-.311zm4.343 1.242-.089.31.089-.31zm.234.067h.323v-.244l-.234-.067-.089.311zm0 5.65.089.31.234-.066v-.244h-.323zm-.234.067.089.31-.089-.31zm-4.343 1.242-.089-.311-.171.049-.05.172.31.09zm-1.265 3.037-.282-.156-.088.157.089.157.281-.158zm2.201 3.915-.281.158.281-.158zm.12.213.228.228.173-.173-.12-.213-.281.158zm-.173.173-.228-.228.228.228zm-3.684 3.686-.228-.229.228.229zm-.171.171-.155.283.212.117.171-.172-.228-.228zm-.212-.117.155-.283-.155.283zm-3.966-2.18.155-.282-.155-.086-.155.085.155.283zm-3.082 1.257-.088-.311-.173.049-.049.173.31.089zm-1.24 4.306.31.089-.31-.089zm-.068.233v.323h.243l.068-.234-.311-.089zm-5.704 0-.31.089.067.234h.243v-.323zm-.067-.233-.31.089.31-.089zm-1.24-4.306.31-.089-.05-.173-.173-.048-.087.31zm-3.083-1.256.155-.283-.155-.086-.155.086.155.283zm-3.965 2.179-.156-.283.156.283zm-.211.116-.227.23.171.169.211-.116-.155-.283zm-.172-.169.227-.23-.227.23zm-3.683-3.64-.227.229.227-.229zm-.175-.173-.281-.159-.121.215.175.173.227-.229zm.121-.215.281.158-.281-.158zm2.2-3.914.282.158.088-.158-.088-.157-.282.157zm-1.271-3.038.31-.091-.05-.17-.171-.049-.089.31zm-4.343-1.242-.089.311.089-.311zm-.234-.067h-.323v.244l.234.067.089-.311zm0-5.65-.089-.31-.234.067v.243h.323zm.234-.067.089.31-.089-.31zm4.343-1.242.089.311.171-.049.05-.171-.31-.091zm1.271-3.037.282.157.088-.158-.088-.157-.282.158zm-2.2-3.915.281-.158-.281.158zm-.121-.214-.227-.23-.175.173.121.215.281-.158zm.175-.173-.227-.23.227.23zm3.683-3.641-.227-.229.227.229zm.172-.169.155-.283-.211-.116-.171.17.227.229zm.211.116.155-.283-.155.283zm3.965 2.18-.155.283.155.085.155-.085-.155-.283zm3.083-1.257.087.311.173-.049.05-.173-.31-.089zm1.24-4.305-.31-.09.31.09zm.066-.232-.002-.322-.241.002-.067.231.31.089zm.241-.002.003.323-.003-.323zm5.219-.045-.003-.323.003.323zm-6.196 4.937.31.089-.31-.089zm1.223-4.248-.002-.323-.241.002-.067.231.31.09zm-1.274 4.423.083.312.177-.047.05-.175-.31-.09zm-.176.047-.083-.311.083.311zm-3.266 1.332.158.281-.158-.281zm-.157.088-.155.283.157.086.157-.088-.159-.281zm-.157-.087-.156.283.156-.283zm-3.911-2.149.155-.283-.211-.116-.171.169.227.23zm-3.337 3.298-.227-.23-.175.173.121.215.281-.158zm2.169 3.858-.281.158.281-.158zm.09.16.28.16.091-.159-.09-.16-.281.159zm-.091.159.28.16-.28-.16zm-1.35 3.224.311.087-.311-.087zm-.048.174.088.31.174-.049.049-.174-.311-.087zm-.174.05.089.31-.089-.31zm-4.281 1.224-.089-.311-.234.067v.244h.323zm0 4.677h-.323v.243l.234.067.089-.31zm4.281 1.224.089-.311-.089.311zm.174.049.311-.087-.049-.173-.174-.05-.088.31zm.048.174.311-.087-.311.087zm1.35 3.225-.28.16.28-.16zm.091.159.281.158.09-.16-.091-.159-.28.161zm-.09.159.281.159-.281-.159zm-2.169 3.859-.281-.159-.121.215.175.173.227-.229zm3.337 3.298-.227.229.171.169.211-.116-.155-.282zm3.911-2.15.155.283-.155-.283zm.157-.087.159-.281-.157-.088-.157.087.155.282zm.157.089.158-.281-.158.281zm3.266 1.331-.083.312.083-.312zm.176.047.31-.089-.05-.176-.177-.047-.083.312zm.051.175.31-.089-.31.089zm1.223 4.247-.31.089.067.233h.243v-.322zm4.733 0v.322h.243l.067-.233-.31-.089zm1.223-4.247-.311-.089.311.089zm.05-.175-.084-.311-.176.047-.05.175.31.089zm.176-.047-.084-.312.084.312zm3.267-1.332.158.282-.158-.282zm.157-.087.155-.283-.157-.086-.156.087.158.282zm.157.086-.156.283.156-.283zm3.909 2.149-.155.283.212.116.172-.171-.229-.228zm3.339-3.341.229.228.173-.173-.12-.213-.282.158zm-2.17-3.86.282-.158-.282.158zm-.089-.159-.281-.16-.09.159.089.159.282-.158zm.09-.159.281.16-.281-.16zm1.344-3.225.311.087-.311-.087zm.048-.174-.089-.31-.174.05-.048.174.311.086zm.174-.05-.089-.31.089.31zm4.281-1.224.089.311.234-.067v-.244h-.323zm0-4.676h.323v-.244l-.234-.067-.089.311zm-4.281-1.224.089-.311-.089.311zm-.174-.05-.311.086.048.174.174.05.089-.31zm-.048-.175.311-.086-.311.086zm-1.344-3.224.281-.16-.281.16zm-.09-.159-.282-.158-.089.159.09.159.281-.16zm.089-.159.282.158-.282-.158zm2.17-3.858.281.158.121-.215-.176-.173-.226.23zm-3.337-3.298.226-.23-.171-.169-.211.116.156.283zm-3.911 2.149-.156-.283.156.283zm-.157.086-.158.282.156.088.157-.087-.155-.283zm-.157-.087-.158.281.158-.281zm-3.267-1.332-.084.312.084-.312zm-.176-.047-.31.089.05.175.176.047.084-.311zm-.05-.175-.311.089.311-.089zm-1.223-4.244.31-.09-.067-.235-.246.002.003.323zm-9.025 11.549-.227-.23.227.23zm6.625-2.702h.323v-.322l-.322-.001-.001.323zm-9.427 9.315-.322-.003v.003h.322zm1.561 5.161.269-.179-.269.179zm4.159 3.431.124-.298-.124.298zm5.361.55.062.316-.062-.316zm4.768-2.516.227.229-.227-.229zm2.574-4.739.316.066-.316-.066zm-.481-5.371-.3.12.3-.12zm-3.376-4.204-.183.266.183-.266zm-5.139-1.627h-.323v.318l.319.004.004-.322zm.032-.645-.323-.002-.001.32.319.004.005-.322zm0-.001.323.002.002-.322-.323-.002-.002.322zm-7.11 2.888.226.23-.226-.23zm-2.994 7.069-.323-.003v.002l.323.001zm0 .003-.323-.001v.001h.323zm1.669 5.52.269-.179-.269.179zm10.18 4.256-.061-.317.061.317zm5.098-2.69-.226-.23.226.23zm2.753-5.067-.316-.065.316.065zm-.514-5.743.299-.121-.299.121zm-3.611-4.496.183-.266-.183.266zm-2.24-10.445-.068-.235-.62.178.068.236.62-.179zm1.24 4.306-1.24-4.306-.62.179 1.24 4.306.62-.179zm2.926 1.062a15.153 15.153 0 0 0-3.149-1.283l-.175.621c1.048.295 2.059.708 3.015 1.229l.309-.567zm3.656-2.179-3.966 2.18.311.566 3.966-2.18-.311-.566zm.211-.116-.211.116.311.566.211-.116-.311-.566zm.554.223-.171-.17-.454.459.171.17.454-.459zm3.683 3.64-3.683-3.64-.454.459 3.684 3.64.453-.459zm.175.173-.175-.173-.453.459.175.173.453-.459zm-.066.602.121-.214-.563-.317-.12.215.562.316zm-2.201 3.915 2.201-3.915-.562-.316-2.201 3.915.562.316zm1.294 2.789a15.113 15.113 0 0 0-1.293-3.104l-.564.313c.522.941.937 1.938 1.237 2.971l.62-.18zm4.122 1.022-4.343-1.242-.178.621 4.343 1.241.178-.62zm.234.066-.234-.066-.178.62.234.067.178-.621zm.234.554v-.243h-.646v.243h.646zm0 5.164v-5.164h-.646v5.164h.646zm0 .243v-.243h-.646v.243h.646zm-.468.377.234-.067-.178-.62-.234.067.178.62zm-4.343 1.242 4.343-1.242-.178-.62-4.343 1.241.178.621zm-1.072 2.884c.545-.983.979-2.025 1.293-3.104l-.62-.18c-.3 1.033-.715 2.03-1.237 2.971l.564.313zm2.2 3.6-2.201-3.915-.562.316 2.201 3.915.562-.316zm.12.213-.12-.213-.562.316.12.213.562-.316zm-.226.559.173-.173-.456-.456-.173.173.456.456zm-3.683 3.686 3.683-3.686-.456-.456-3.684 3.685.457.457zm-.172.171.172-.171-.457-.457-.171.172.456.456zm-.596-.062.213.117.311-.566-.213-.117-.311.566zm-3.966-2.18 3.966 2.18.311-.566-3.966-2.179-.311.565zm-2.839 1.285a15.21 15.21 0 0 0 3.149-1.284l-.309-.567c-.956.521-1.967.934-3.015 1.229l.175.622zm-1.017 4.084 1.24-4.306-.62-.178-1.24 4.305.62.179zm-.067.233.067-.233-.62-.179-.068.234.621.178zm-.553.234h.242v-.646h-.242v.646zm-5.219 0h5.219v-.646h-5.219v.646zm-.243 0h.243v-.646h-.243v.646zm-.377-.467.067.233.62-.178-.067-.234-.62.179zm-1.24-4.305 1.24 4.305.62-.179-1.24-4.305-.62.179zm-2.928-1.063c.998.546 2.055.977 3.151 1.284l.174-.621a14.343 14.343 0 0 1-3.015-1.229l-.31.566zm-3.655 2.179 3.966-2.18-.311-.565-3.966 2.179.311.566zm-.211.116.211-.116-.311-.566-.211.116.311.566zm-.554-.222.172.169.453-.459-.171-.17-.454.46zm-3.683-3.641 3.683 3.641.454-.46-3.683-3.64-.454.459zm-.175-.173.175.173.454-.459-.175-.173-.454.459zm.066-.602-.12.214.562.317.121-.215-.563-.316zm2.201-3.915-2.201 3.915.563.316 2.201-3.914-.563-.317zm-1.299-2.788a15.075 15.075 0 0 0 1.298 3.104l.564-.314a14.417 14.417 0 0 1-1.243-2.972l-.619.182zm-4.123-1.022 4.344 1.241.177-.62-4.343-1.242-.178.621zm-.234-.067.234.067.178-.621-.234-.067-.178.621zm-.234-.554v.243h.646v-.243h-.646zm0-5.164v5.164h.646v-5.164h-.646zm0-.243v.243h.646v-.243h-.646zm.468-.377-.234.067.178.62.234-.067-.178-.62zm4.344-1.242-4.344 1.242.178.62 4.343-1.241-.177-.621zm1.077-2.884a15.052 15.052 0 0 0-1.298 3.104l.619.181a14.41 14.41 0 0 1 1.243-2.971l-.564-.314zm-2.2-3.599 2.201 3.914.563-.316-2.201-3.915-.563.317zm-.12-.215.12.215.563-.317-.121-.214-.562.316zm.229-.561-.175.173.454.459.175-.173-.454-.459zm3.683-3.64-3.683 3.64.454.459 3.683-3.64-.454-.459zm.172-.169-.172.169.454.459.171-.169-.453-.459zm.593.062-.211-.116-.311.566.211.116.311-.566zm3.966 2.18-3.966-2.18-.311.566 3.966 2.18.311-.566zm2.84-1.285a14.938 14.938 0 0 0-3.151 1.285l.31.566a14.29 14.29 0 0 1 3.015-1.229l-.174-.622zm1.017-4.084-1.24 4.306.62.178 1.24-4.305-.62-.179zm.066-.231-.066.231.62.179.067-.231-.621-.179zm.548-.235-.24.002.005.645.241-.002-.006-.645zm5.219-.046-5.219.046.006.645 5.219-.045-.006-.646zm.245-.002-.245.002.006.646.245-.002-.006-.646zm-6.128 5.351 1.224-4.248-.621-.179-1.223 4.249.62.178zm-.051.176.051-.176-.62-.178-.051.175.62.179zm-.403.269.176-.047-.166-.624-.176.048.166.623zm-3.191 1.301a13.65 13.65 0 0 1 3.191-1.301l-.166-.623a14.31 14.31 0 0 0-3.342 1.361l.317.563zm-.156.088.156-.088-.317-.563-.156.089.317.562zm-.472-.085.158.087.311-.566-.158-.087-.311.566zm-3.911-2.149 3.911 2.149.311-.566-3.911-2.149-.311.566zm-2.954 3.244 3.337-3.298-.454-.459-3.337 3.298.454.459zm2.223 3.471-2.169-3.858-.562.316 2.169 3.858.562-.316zm.09.159-.09-.159-.562.316.09.16.562-.317zm-.092.478.091-.159-.56-.321-.091.159.56.321zm-1.319 3.151a13.76 13.76 0 0 1 1.319-3.151l-.56-.321a14.46 14.46 0 0 0-1.381 3.298l.622.174zm-.048.174.048-.174-.622-.174-.048.174.622.174zm-.396.273.173-.05-.177-.62-.174.049.178.621zm-4.282 1.224 4.282-1.224-.178-.621-4.281 1.224.177.621zm.234 4.367v-4.677h-.645v4.677h.645zm4.048.913-4.282-1.224-.177.621 4.281 1.224.178-.621zm.173.05-.173-.05-.178.621.174.05.177-.621zm.271.397-.048-.174-.622.174.048.174.622-.174zm1.319 3.151a13.741 13.741 0 0 1-1.319-3.151l-.622.174a14.46 14.46 0 0 0 1.381 3.298l.56-.321zm.091.159-.091-.159-.56.321.091.159.56-.321zm-.089.479.09-.16-.562-.317-.09.16.562.317zm-2.169 3.858 2.169-3.858-.562-.317-2.169 3.858.562.317zm3.283 2.91-3.337-3.298-.454.459 3.337 3.298.454-.459zm3.528-2.203-3.911 2.15.311.565 3.911-2.149-.311-.566zm.158-.086-.158.086.311.566.158-.087-.311-.565zm.47.09-.156-.089-.317.563.156.088.317-.562zm3.191 1.3a13.69 13.69 0 0 1-3.191-1.3l-.317.562a14.312 14.312 0 0 0 3.342 1.362l.166-.624zm.176.047-.176-.047-.166.624.176.047.166-.624zm.278.398-.051-.175-.62.178.051.176.62-.179zm1.223 4.246-1.223-4.246-.62.179 1.223 4.246.62-.179zm4.423-.233h-4.733v.645h4.733v-.645zm.912-4.013-1.222 4.246.62.179 1.223-4.246-.621-.179zm.051-.175-.051.175.621.179.05-.175-.62-.179zm.402-.27-.176.048.168.623.176-.047-.168-.624zm3.193-1.301a13.857 13.857 0 0 1-3.193 1.301l.168.624a14.56 14.56 0 0 0 3.341-1.362l-.316-.563zm.157-.088-.157.088.316.563.156-.088-.315-.563zm.47.085-.157-.086-.311.566.157.086.311-.566zm3.91 2.149-3.91-2.149-.311.566 3.91 2.149.311-.566zm2.955-3.286-3.339 3.341.457.456 3.339-3.341-.457-.456zm-2.223-3.474 2.17 3.86.563-.316-2.17-3.86-.563.316zm-.09-.159.09.159.563-.316-.09-.159-.563.316zm.092-.477-.091.159.561.32.091-.159-.561-.32zm1.313-3.151a13.786 13.786 0 0 1-1.313 3.151l.561.32a14.438 14.438 0 0 0 1.374-3.298l-.622-.173zm.048-.174-.048.174.622.173.048-.175-.622-.172zm.396-.274-.174.05.178.62.174-.049-.178-.621zm4.282-1.224-4.282 1.224.178.621 4.281-1.224-.177-.621zm-.234-4.366v4.676h.645v-4.676h-.645zm-4.048-.914 4.282 1.224.177-.621-4.281-1.224-.178.621zm-.174-.05.174.05.178-.621-.174-.05-.178.621zm-.27-.398.048.174.622-.172-.048-.175-.622.173zm-1.313-3.151c.567.992 1.007 2.05 1.313 3.151l.622-.173a14.438 14.438 0 0 0-1.374-3.298l-.561.32zm-.091-.159.091.159.561-.32-.091-.159-.561.32zm.089-.477-.09.159.563.316.09-.159-.563-.316zm2.169-3.859-2.169 3.859.563.316 2.169-3.858-.563-.317zm-3.282-2.91 3.337 3.298.453-.459-3.337-3.298-.453.459zm-3.529 2.203 3.911-2.15-.311-.565-3.911 2.149.311.566zm-.157.086.157-.086-.311-.566-.157.087.311.565zm-.47-.089.157.088.315-.563-.156-.088-.316.563zm-3.193-1.301c1.114.299 2.187.736 3.193 1.301l.316-.563a14.56 14.56 0 0 0-3.341-1.362l-.168.624zm-.176-.048.176.048.168-.624-.176-.047-.168.623zm-.277-.397.051.175.62-.179-.05-.175-.621.179zm-1.222-4.244 1.222 4.244.621-.179-1.223-4.244-.62.179zm-4.42.274 4.733-.041-.006-.645-4.732.041.005.645zm-4.069 11.415a9.07 9.07 0 0 1 6.398-2.609l.002-.645a9.71 9.71 0 0 0-6.853 2.795l.453.459zm-2.705 6.387a9.082 9.082 0 0 1 2.705-6.387l-.453-.459a9.719 9.719 0 0 0-2.897 6.84l.645.006zm1.507 4.979a9.003 9.003 0 0 1-1.507-4.982h-.645c0 1.9.562 3.758 1.615 5.34l.537-.358zm4.014 3.312a8.987 8.987 0 0 1-4.014-3.312l-.537.358a9.636 9.636 0 0 0 4.302 3.55l.249-.596zm5.176.531a8.985 8.985 0 0 1-5.176-.531l-.249.596a9.634 9.634 0 0 0 5.548.568l-.123-.633zm4.602-2.429a8.985 8.985 0 0 1-4.602 2.429l.123.633a9.627 9.627 0 0 0 4.933-2.603l-.454-.459zm2.485-4.574a8.988 8.988 0 0 1-2.485 4.574l.454.459a9.638 9.638 0 0 0 2.663-4.902l-.632-.131zm-.465-5.186a8.99 8.99 0 0 1 .465 5.186l.632.131a9.64 9.64 0 0 0-.498-5.558l-.599.241zm-3.259-4.058a8.989 8.989 0 0 1 3.259 4.058l.599-.241a9.634 9.634 0 0 0-3.493-4.35l-.365.533zm-4.96-1.571a8.98 8.98 0 0 1 4.96 1.571l.365-.533a9.629 9.629 0 0 0-5.317-1.683l-.008.645zm-.319-.322h.646-.646zm.678-.644-.646-.003.646.003zm-.321-.324a10.355 10.355 0 0 0-7.339 2.98l.453.46a9.714 9.714 0 0 1 6.882-2.795l.004-.645zm-7.339 2.98a10.372 10.372 0 0 0-3.09 7.296l.646.006a9.722 9.722 0 0 1 2.897-6.842l-.453-.46zm-3.09 7.298v.003l.646.002v-.003l-.646-.002zm0 .004c0 2.028.6 4.01 1.723 5.698l.538-.357a9.641 9.641 0 0 1-1.615-5.341h-.646zm1.723 5.698a10.282 10.282 0 0 0 4.591 3.788l.249-.595a9.636 9.636 0 0 1-4.302-3.55l-.538.357zm4.591 3.788c1.87.782 3.93.993 5.92.607l-.123-.634a9.634 9.634 0 0 1-5.548-.568l-.249.595zm5.92.607a10.27 10.27 0 0 0 5.263-2.778l-.453-.459a9.627 9.627 0 0 1-4.933 2.603l.123.634zm5.263-2.778a10.282 10.282 0 0 0 2.842-5.23l-.632-.131a9.638 9.638 0 0 1-2.663 4.902l.453.459zm2.842-5.23a10.279 10.279 0 0 0-.531-5.93l-.599.241a9.64 9.64 0 0 1 .498 5.558l.632.131zm-.531-5.93a10.284 10.284 0 0 0-3.727-4.641l-.365.532a9.634 9.634 0 0 1 3.493 4.35l.599-.241zm-3.727-4.641a10.276 10.276 0 0 0-5.649-1.796l-.01.645a9.63 9.63 0 0 1 5.294 1.683l.365-.532zM34.972 146.842v-.322h-.243l-.067.233.31.089zm11.833 0 .31-.089-.067-.233h-.243v.322zm.067.234.31-.089-.31.089zm2.743 9.559-.31.089.05.174.174.048.086-.311zm7.004 2.851-.155.283.155.085.156-.085-.156-.283zm8.804-4.833.156.283-.156-.283zm.211-.115.227-.23-.171-.169-.211.116.155.283zm.171.169-.226.229.226-.229zm8.006 7.907-.227.229.227-.229zm.175.173.281.158.121-.215-.175-.173-.227.23zm-.12.215-.282-.159.281.159zm-4.891 8.69-.281-.159-.09.159.09.158.28-.158zm2.89 6.929-.31.088.05.174.174.049.087-.311zm9.682 2.707-.087.311.087-.311zm.236.066h.323v-.245l-.236-.066-.087.311zm0 11.701.087.311.236-.066v-.245h-.323zm-.236.066.088.311-.088-.311zm-9.682 2.714-.087-.311-.174.049-.05.174.311.088zm-2.89 6.91-.28-.159-.09.159.089.159.281-.159zm4.89 8.69-.281.158.281-.158zm.121.215.227.229.175-.173-.12-.214-.282.158zm-.175.173.227.23-.227-.23zm-8.006 7.913.227.23-.227-.23zm-.17.17-.156.282.21.116.172-.169-.227-.229zm-.212-.116.156-.283-.156.283zm-8.803-4.839.155-.283-.156-.086-.156.086.157.283zm-7.005 2.857-.086-.311-.174.048-.05.174.31.089zm-2.743 9.553-.31-.089.31.089zm-.067.233v.323h.243l.067-.234-.31-.089zm-11.833 0-.31.09.067.233h.243v-.323zm-.067-.233.31-.089-.31.089zm-2.75-9.553.31-.089-.05-.174-.174-.048-.086.311zm-6.998-2.857.156-.283-.155-.086-.156.086.155.283zm-8.803 4.839-.156-.283.155.283zm-.212.116-.226.229.171.169.211-.116-.155-.282zm-.17-.17-.227.23.226-.23zm-8.013-7.913-.226.23.226-.23zm-.175-.173-.281-.159-.121.215.175.173.227-.229zm.121-.215.281.158-.28-.158zm4.897-8.69.28.158.09-.158-.09-.159-.28.159zm-2.89-6.91.31-.088-.05-.174-.173-.049-.087.311zm-9.676-2.714-.088.311.088-.311zM0 193.095h-.323v.245l.236.066.087-.311zm0-11.701-.087-.31-.236.066v.244H0zm.235-.066-.087-.31.087.31zm9.677-2.72.087.311.173-.049.05-.173-.31-.089zm2.89-6.916.28.159.09-.159-.09-.159-.28.159zm-4.897-8.677-.28.158.28-.158zm-.121-.215-.227-.23-.176.173.122.215.28-.158zm.176-.174.226.23-.226-.23zm8.011-7.906.227.229-.227-.229zm.171-.169.156-.283-.211-.116-.171.169.226.23zm.211.115.156-.283-.156.283zm8.804 4.833-.155.283.156.085.155-.085-.156-.283zm6.998-2.851.086.311.174-.048.05-.174-.31-.089zm2.75-9.572.31.089-.31-.089zm-2.18 9.925-.31-.09.31.09zm2.733-9.513v-.323h-.243l-.067.234.31.089zm-2.783 9.687.085.312.175-.048.05-.174-.31-.09zm-.175.048-.085-.312.085.312zm-7.184 2.926.157.282-.157-.282zm-.156.088-.156.282.157.086.156-.087-.157-.281zm-.157-.086.155-.283-.155.283zm-8.75-4.803.156-.283-.21-.116-.172.169.227.23zm-7.664 7.564-.227-.229-.176.173.122.215.28-.159zm4.865 8.622-.281.158.28-.158zm.09.16.28.16.091-.159-.09-.16-.281.159zm-.091.159-.28-.161.28.161zm-2.97 7.104-.31-.087.31.087zm-.048.175.088.31.174-.049.05-.175-.312-.086zm-.175.049.088.31-.088-.31zm-9.615 2.703-.087-.311-.235.066v.245h.322zm0 10.722H.323v.245l.235.066.087-.311zm9.615 2.696.087-.31-.087.31zm.175.049.311-.086-.049-.175-.175-.049-.087.31zm.049.175-.31.087.31-.087zm2.969 7.098-.28.16.28-.16zm.09.159.282.158.09-.159-.091-.16-.28.161zm-.09.16-.28-.159.28.159zm-4.865 8.634-.28-.158-.122.214.176.174.226-.23zm7.666 7.571-.227.23.171.169.211-.116-.155-.283zm8.749-4.809.155.283-.155-.283zm.157-.086.158-.282-.157-.087-.157.086.156.283zm.156.087-.158.282.158-.282zm7.183 2.933.085-.311-.085.311zm.176.048.31-.09-.05-.175-.176-.047-.084.312zm.05.174.31-.089-.31.089zm2.733 9.494-.31.089.067.234h.243v-.323zm10.86 0v.323h.244l.067-.234-.31-.089zm2.727-9.493.31.089-.31-.089zm.05-.175-.084-.312-.176.047-.05.175.31.09zm.176-.048.084.312-.084-.312zm7.19-2.933-.158-.281.158.281zm.156-.087.155-.283-.157-.086-.156.087.158.282zm.157.086-.156.283.156-.283zm8.749 4.809-.155.283.21.116.172-.169-.227-.23zm7.659-7.571.227.23.175-.174-.12-.214-.282.158zm-4.86-8.634.282-.159-.281.159zm-.09-.16-.28-.161-.09.159.09.16.28-.158zm.092-.16-.28-.16.28.16zm2.969-7.096-.311-.086.31.086zm.048-.175-.087-.311-.175.049-.049.175.311.087zm.175-.05-.087-.31.087.31zm9.622-2.696.087.311.235-.066v-.245h-.322zm0-10.722h.322v-.245l-.235-.066-.087.311zm-9.621-2.69-.087.311.087-.311zm-.176-.049-.31.086.048.175.175.049.087-.31zm-.048-.176-.312.086.312-.086zm-2.969-7.116-.28.161.28-.161zm-.091-.159-.281-.158-.09.159.09.16.28-.161zm.09-.16.281.158-.281-.158zm4.859-8.634.281.158.121-.215-.175-.173-.227.23zm-7.659-7.565.227-.23-.171-.169-.211.116.155.283zm-8.75 4.803.156.283-.155-.283zm-.156.086-.157.281.156.087.157-.085-.156-.283zm-.156-.087-.157.281.157-.281zm-7.19-2.927-.085.312.085-.312zm-.176-.047-.31.089.05.175.176.047.084-.311zm-.05-.175-.31.089.31-.089zm-2.726-9.5.31-.089-.067-.234h-.243v.323zm-5.111 19.144v.323h.323v-.323h-.323zm0-.012.003-.323-.326-.003v.326h.323zm20.552 20.629h.322v-.002l-.322.002zm-6.176-14.631-.227.23.227-.23zm-15.022-6.643-.001-.323-.321.002v.321h.322zm0 .014.005.323.318-.005v-.318h-.323zm.322-.015.001.322-.001-.322zm15.154 6.185.227-.229-.227.229zm6.367 15.087-.323.002.323-.002zm0 .002h.323v-.002l-.323.002zm-27.19-40.728h-.243v.645h.243v-.645zm11.347 0H35.215v.645h11.347v-.645zm.243 0h-.243v.645h.243v-.645zm.377.467-.067-.234-.62.178.067.234.62-.178zm2.743 9.559-2.743-9.559-.62.178 2.743 9.559.62-.178zm6.85 2.657a32.795 32.795 0 0 0-7.074-2.879l-.172.622a32.159 32.159 0 0 1 6.935 2.823l.31-.566zm8.493-4.832-8.804 4.832.31.566 8.805-4.833-.311-.565zm.21-.116-.21.116.31.565.212-.115-.311-.566zm.554.222-.171-.169-.454.459.172.169.453-.459zm8.005 7.907-8.005-7.907-.453.459 8.005 7.907.453-.459zm.176.173-.175-.173-.454.459.175.173.454-.459zm-.066.603.12-.215-.562-.317-.121.215.563.317zm-4.89 8.69 4.89-8.69-.563-.317-4.89 8.69.562.317zm2.919 6.683a31.757 31.757 0 0 0-2.92-7l-.562.317a31.148 31.148 0 0 1 2.86 6.859l.622-.176zm9.458 2.484-9.682-2.707-.173.622 9.681 2.707.174-.622zm.236.066-.236-.066-.174.622.236.066.174-.622zm.236.556v-.245h-.646v.245h.646zm0 11.212v-11.212h-.646v11.212h.646zm0 .244v-.244h-.646v.244h.646zm-.471.377.235-.066-.174-.621-.236.066.175.621zm-9.683 2.714 9.683-2.714-.175-.621-9.682 2.713.174.622zm-2.696 6.759a31.739 31.739 0 0 0 2.92-6.982l-.621-.176a31.07 31.07 0 0 1-2.86 6.839l.56.319zm4.89 8.372-4.89-8.69-.562.317 4.89 8.689.563-.316zm.121.215-.12-.215-.563.316.12.215.563-.316zm-.23.561.176-.174-.454-.459-.175.173.454.46zm-8.005 7.913 8.006-7.913-.454-.46-8.005 7.914.453.459zm-.17.169.17-.169-.453-.459-.172.169.454.459zm-.594-.063.21.116.312-.565-.211-.116-.311.565zm-8.804-4.838 8.804 4.838.31-.565-8.803-4.839-.311.566zm-6.763 2.885a32.473 32.473 0 0 0 7.075-2.886l-.313-.565a31.824 31.824 0 0 1-6.934 2.829l.172.622zm-2.519 9.331 2.743-9.553-.62-.178-2.743 9.553.62.178zm-.067.233.067-.233-.62-.178-.067.233.62.178zm-.553.234h.243v-.645h-.243v.645zm-11.347 0h11.347v-.645H35.215v.645zm-.243 0h.243v-.645h-.243v.645zm-.377-.467.067.234.62-.179-.067-.233-.62.178zm-2.75-9.553 2.75 9.553.62-.178-2.75-9.553-.62.178zm-6.844-2.664a32.42 32.42 0 0 0 7.068 2.886l.172-.622a31.772 31.772 0 0 1-6.928-2.829l-.312.565zm-8.492 4.839 8.803-4.838-.31-.566-8.804 4.839.311.565zm-.211.116.211-.116-.31-.565-.212.116.311.565zm-.553-.222.17.169.454-.459-.17-.169-.455.459zm-8.012-7.913 8.012 7.913.453-.459-8.012-7.914-.453.46zm-.176-.174.176.174.453-.46-.175-.173-.454.459zm.067-.602-.121.214.562.317.121-.215-.562-.316zm4.897-8.69-4.897 8.69.562.316 4.897-8.69-.562-.316zm-2.92-6.663a32.028 32.028 0 0 0 2.92 6.98l.562-.318a31.383 31.383 0 0 1-2.861-6.839l-.62.177zm-9.453-2.492 9.676 2.714.175-.622-9.676-2.713-.175.621zm-.235-.066.235.066.175-.621-.236-.066-.174.621zm-.236-.555v.244h.646v-.244h-.646zm0-11.212v11.212h.646v-11.212h-.646zm0-.245v.245h.646v-.245h-.646zm.471-.376-.235.066.174.621.236-.066-.175-.621zm9.676-2.72-9.676 2.72.175.621 9.676-2.72-.175-.621zm2.697-6.765a32.078 32.078 0 0 0-2.92 6.987l.62.177a31.429 31.429 0 0 1 2.862-6.846l-.562-.318zm-4.897-8.36 4.897 8.677.562-.317-4.897-8.677-.562.317zm-.121-.215.121.215.562-.317-.121-.215-.562.317zm.23-.561-.176.173.454.46.175-.174-.453-.459zm8.012-7.907-8.012 7.907.453.459 8.012-7.907-.453-.459zm.17-.169-.17.169.453.459.171-.169-.453-.459zm.594.062-.211-.115-.31.566.21.115.31-.566zm8.804 4.833-8.804-4.833-.31.566 8.803 4.833.31-.566zm6.756-2.879a32.741 32.741 0 0 0-7.067 2.879l.311.566a32.106 32.106 0 0 1 6.928-2.823l-.172-.622zm2.525-9.35-2.749 9.572.62.178 2.75-9.572-.62-.178zm.068-.234-.068.234.62.178.068-.234-.62-.178zm-1.626 10.337 2.732-9.513-.62-.178-2.733 9.512.62.179zm-.05.175.05-.175-.62-.179-.051.175.62.179zm-.402.27.176-.048-.17-.623-.175.047.169.624zm-7.111 2.896a31.447 31.447 0 0 1 7.11-2.896l-.168-.624a32.09 32.09 0 0 0-7.257 2.957l.315.563zm-.156.087.156-.087-.315-.563-.156.087.315.563zm-.47-.085.157.086.31-.565-.156-.086-.31.565zm-8.749-4.802 8.75 4.802.31-.565-8.75-4.803-.31.566zm-7.283 7.511 7.665-7.564-.453-.46-7.665 7.565.453.459zm4.92 8.233-4.865-8.621-.562.317 4.865 8.621.562-.317zm.09.16-.09-.16-.562.317.09.16.562-.317zm-.092.478.091-.159-.56-.321-.091.159.56.321zm-2.938 7.03a30.796 30.796 0 0 1 2.938-7.03l-.56-.321a31.425 31.425 0 0 0-3 7.178l.622.173zm-.049.175.049-.175-.622-.173-.049.175.622.173zm-.398.273.175-.049-.175-.621-.175.049.175.621zm-9.615 2.703 9.615-2.703-.175-.621-9.615 2.703.175.621zm.235 10.412v-10.722H.323v10.722h.645zm9.38 2.386-9.615-2.697-.175.622 9.615 2.696.174-.621zm.174.049-.175-.049-.174.621.175.049.174-.621zm.273.399-.049-.175-.622.173.05.175.62-.173zm2.938 7.023a30.73 30.73 0 0 1-2.938-7.023l-.622.173a31.363 31.363 0 0 0 3 7.171l.56-.321zm.09.159-.09-.159-.56.321.09.159.56-.321zm-.088.479.09-.16-.562-.317-.09.16.562.317zm-4.865 8.635 4.865-8.635-.562-.317-4.866 8.635.563.317zm7.61 7.182-7.665-7.57-.453.459 7.665 7.571.453-.46zm8.367-4.862-8.749 4.809.311.566 8.75-4.809-.312-.566zm.157-.086-.157.086.311.566.157-.086-.31-.566zm.47.089-.156-.088-.316.563.156.088.316-.563zm7.11 2.903a31.18 31.18 0 0 1-7.11-2.903l-.316.563a31.83 31.83 0 0 0 7.257 2.963l.169-.623zm.175.047-.175-.047-.169.623.176.047.168-.623zm.276.397-.05-.175-.62.179.05.175.62-.179zm2.733 9.494-2.733-9.494-.62.179 2.733 9.493.62-.178zm10.55-.234h-10.86v.646h10.86v-.646zm2.417-9.26-2.727 9.494.62.178 2.727-9.493-.62-.179zm.05-.175-.05.175.62.179.05-.175-.62-.179zm.402-.27-.176.048.168.623.176-.047-.168-.624zm7.116-2.902a31.183 31.183 0 0 1-7.116 2.902l.168.624a31.884 31.884 0 0 0 7.264-2.963l-.316-.563zm.156-.088-.156.088.316.563.156-.088-.316-.563zm.47.085-.157-.086-.31.566.156.086.311-.566zm8.75 4.809-8.75-4.809-.31.566 8.749 4.809.31-.566zm7.276-7.517-7.659 7.57.454.46 7.659-7.571-.454-.459zm-4.913-8.247 4.859 8.634.562-.316-4.859-8.635-.563.317zm-.09-.16.09.16.562-.317-.09-.16-.563.317zm.092-.478-.091.159.56.321.091-.159-.56-.321zm2.938-7.022a30.455 30.455 0 0 1-2.938 7.022l.56.321a31.07 31.07 0 0 0 3-7.171l-.622-.172zm.048-.176-.048.176.622.172.048-.175-.622-.173zm.4-.273-.176.049.174.621.176-.049-.175-.621zm9.62-2.697-9.62 2.697.174.621 9.62-2.696-.174-.622zm-.235-10.411v10.722h.645v-10.722h-.645zm-9.385-2.379 9.62 2.69.175-.622-9.621-2.69-.174.622zm-.176-.05.176.05.174-.622-.176-.049-.174.621zm-.273-.4.05.176.621-.172-.048-.176-.623.172zm-2.937-7.041a30.47 30.47 0 0 1 2.938 7.041l.622-.172a31.14 31.14 0 0 0-3-7.191l-.56.322zm-.091-.159.091.159.56-.322-.091-.159-.56.322zm.088-.479-.09.16.563.316.09-.16-.563-.316zm4.86-8.635-4.86 8.635.563.316 4.86-8.634-.563-.317zm-7.605-7.176 7.66 7.564.453-.459-7.66-7.565-.453.46zm-8.367 4.856 8.75-4.803-.311-.566-8.75 4.803.311.566zm-.157.086.157-.086-.31-.566-.157.086.31.566zm-.468-.089.156.087.315-.563-.157-.087-.314.563zm-7.118-2.896a31.496 31.496 0 0 1 7.118 2.896l.314-.563a32.095 32.095 0 0 0-7.263-2.956l-.169.623zm-.175-.048.175.048.169-.623-.176-.048-.168.623zm-.277-.397.05.175.621-.178-.05-.175-.62.178zm-2.726-9.5 2.726 9.5.62-.178-2.725-9.5-.62.178zm-10.55.233h10.86v-.645h-10.86v.645zm6.073 18.822v-.012h-.646v.012h.646zm-.646.323h.323v-.646h-.323v.646zm-20.552 20.293c0-11.189 9.231-20.293 20.552-20.293v-.646c-11.67 0-21.197 9.385-21.197 20.939h.645zm20.552 20.293c-11.327 0-20.552-9.104-20.552-20.293h-.645c0 11.554 9.521 20.939 21.197 20.939v-.646zm20.552-20.292c0 11.164-9.225 20.292-20.552 20.292v.646c11.676 0 21.197-9.411 21.197-20.938h-.645zm-6.08-14.401a20.472 20.472 0 0 1 6.08 14.403l.645-.004a21.12 21.12 0 0 0-6.27-14.858l-.455.459zm-14.153-5.905a20.447 20.447 0 0 1 14.153 5.905l.454-.459a21.097 21.097 0 0 0-14.6-6.092l-.007.646zm-.964-.968v.014h.645v-.014h-.645zm.642-.324-.321.001.003.646.321-.002-.003-.645zm15.383 6.279a21.735 21.735 0 0 0-15.383-6.279l.003.645a21.1 21.1 0 0 1 14.926 6.093l.454-.459zm6.463 15.313a21.763 21.763 0 0 0-6.463-15.313l-.454.459a21.119 21.119 0 0 1 6.271 14.859l.646-.005zm0 .003v-.003l-.646.005v.003l.646-.005zm-21.843 21.586c12.025 0 21.843-9.692 21.843-21.584h-.646c0 11.528-9.521 20.939-21.197 20.939v.645zm-21.842-21.584c0 11.918 9.818 21.584 21.842 21.584v-.645c-11.676 0-21.197-9.385-21.197-20.939h-.645zm21.515-21.582c-11.869.174-21.515 9.772-21.515 21.582h.645c0-11.449 9.355-20.768 20.88-20.936l-.01-.646z" fill="#7371FC"/><path d="m143.852 264.639.103-.045-.464-.207a14.287 14.287 0 0 1-7.232-7.164l-.064-.149-.361.71a14.237 14.237 0 0 1-6.412 6.319l-.987.491h.058a14.286 14.286 0 0 1 7.489 7.048l.187.478a14.276 14.276 0 0 1 7.683-7.481z" fill="#32338C"/><path d="M149.761 272.997h.051l-.232-.103a7.136 7.136 0 0 1-3.612-3.583l-.033-.071-.18.355a7.157 7.157 0 0 1-3.226 3.157l-.496.245a7.135 7.135 0 0 1 3.741 3.524l.161.207a7.098 7.098 0 0 1 3.826-3.731zM265.474 77.178l-.077-.04.348-.154a10.648 10.648 0 0 0 5.406-5.357l.045-.104.271.53a10.715 10.715 0 0 0 4.793 4.725l.742.36h-.045a10.709 10.709 0 0 0-5.6 5.274l-.161.349a10.632 10.632 0 0 0-5.722-5.583z" fill="#7371FC"/><path d="M261.036 83.413h-.038l.174-.078a5.34 5.34 0 0 0 2.703-2.678v-.058l.135.264a5.31 5.31 0 0 0 2.393 2.363l.374.187a5.342 5.342 0 0 0-2.799 2.633l-.078.162a5.348 5.348 0 0 0-2.864-2.795z" fill="#32338C"/><path d="M7.87 133.694h-.078l.349-.155a10.698 10.698 0 0 0 5.406-5.357l.045-.11.27.53a10.681 10.681 0 0 0 4.794 4.724l.741.368h-.045a10.665 10.665 0 0 0-5.599 5.267l-.161.316a10.657 10.657 0 0 0-5.722-5.583z" fill="#7371FC"/><path d="M3.432 139.936h-.039l.174-.078a5.362 5.362 0 0 0 2.703-2.678v-.052l.13.265a5.38 5.38 0 0 0 2.399 2.362l.374.181a5.352 5.352 0 0 0-2.8 2.64l-.077.148a5.36 5.36 0 0 0-2.864-2.788zM223.312 63.661a109.669 109.669 0 0 1 32.551 25.773c3.664 4.26 7.128 9.114 7.702 14.704.645 6.409-2.58 12.503-5.676 18.137-2.581 4.693-5.729 9.818-10.915 11.18-4.245 1.116-8.696-.646-12.534-2.808-14.998-8.352-26.248-22.591-32.699-38.527a50.976 50.976 0 0 1-3.767-23.36c.148-2.317-5.922-2.53-4.29-4.37 2.335-2.607 9.56-5.931 16.082-5.098a40.706 40.706 0 0 1 13.546 4.37z" fill="#32338C"/><path d="M246.103 75.112a22.32 22.32 0 0 1-7.219 4.467 15.605 15.605 0 0 1-6.134 1.375 6.55 6.55 0 0 1-.71-.045c.094.407.265.792.503 1.135.781 1.06 2.232 1.33 3.542 1.408a23.05 23.05 0 0 0 10.321-1.801c.368-.112.691-.338.922-.646.17-.357.228-.757.168-1.149a43.301 43.301 0 0 1 .245-6.628 14.257 14.257 0 0 1-1.638 1.884z" fill="#F8AB73"/><path d="M246.103 75.112c.6-.58 1.148-1.21 1.638-1.885.361-3.576.974-7.1 1.161-10.74-3.67-.865-9.592 2.943-12.146 5.35-3.297 3.099-5.368 7.65-4.877 12.148.031.311.085.62.161.923.236.028.472.043.71.045a15.607 15.607 0 0 0 6.134-1.375 22.319 22.319 0 0 0 7.219-4.466z" fill="#FE814B"/><path d="M269.467 36.3c1.355-3.601 1.806-7.745.329-11.288-1.477-3.544-5.16-6.345-8.986-6.016 1.207-2.472-.264-5.215-2.277-7.1-2.012-1.885-4.786-2.698-7.508-3.118-7.69-1.187-15.54.426-23.314.084-2.87-.129-5.805-.548-8.302-1.968-2.496-1.42-4.47-4.022-4.47-6.894-1.006 2.188-2.135 4.834-1.968 7.236.168 2.4 1.484 4.84 3.697 5.809-2.232.645-4.567-.743-6.012-2.582-1.445-1.84-2.026-4.19-2.181-6.506a12.826 12.826 0 0 0-5.07 6.874 16.38 16.38 0 0 0-.851 7.803 9.6 9.6 0 0 0 4.083 6.539 5.805 5.805 0 0 1-3.226-.123 4.838 4.838 0 0 0 1.936 3.808 11.237 11.237 0 0 0 3.967 1.879c4.838 1.452 9.921 1.846 14.882 2.808 11.708 2.278 22.519 7.706 33.647 11.999 1.561.606 4.135 1.09 5.754.69 2.238-3.143 4.516-6.332 5.87-9.933z" fill="#FE642F"/><path d="M252.45 26.238c-5.851 5.512-14.456 6.868-22.423 5.81a23.073 23.073 0 0 0 7.032-5.293c-7.915-.517-16.082 1.413-23.978.645a43.34 43.34 0 0 0-1.812 8.217c-.585 5.699-.35 11.453.696 17.085 1.026 6.158 2.735 12.412 6.632 17.285 3.896 4.874 10.405 8.114 16.449 6.539a19.156 19.156 0 0 0 6.212-3.098c6.986-4.957 12.063-12.212 15.482-20.113a19.308 19.308 0 0 1-5.354-8.83c-1.677-5.95-.787-12.354 1.064-18.247z" fill="#F8AB74"/><path d="M230.027 32.027c7.967 1.078 16.572-.277 22.423-5.809-1.851 5.893-2.741 12.296-1.064 18.247a19.31 19.31 0 0 0 5.354 8.85c.43-1.024.847-2.06 1.252-3.105a41.727 41.727 0 0 0 2.909-14c.039-4.79-1.142-9.682-3.903-13.587-3.87-5.512-10.508-8.552-17.133-9.798a26.082 26.082 0 0 0-9.825-.207c-4.302.852-10.16 3.273-12.953 6.894a26.788 26.788 0 0 0-3.993 7.9c7.883.736 16.05-1.194 23.965-.677a23.074 23.074 0 0 1-7.032 5.292z" fill="#FE642F"/><path d="M252.979 52.282c.368 1.995 1.181 4.157 3.019 5.022a4.804 4.804 0 0 0 4.316-.362 10.021 10.021 0 0 0 3.154-3.156 13.863 13.863 0 0 0 2.581-6.216 7.928 7.928 0 0 0-1.871-6.261c-1.51-1.613-4.174-2.794-6.257-1.826a9.034 9.034 0 0 0-4.484 5.054 14.776 14.776 0 0 0-.458 7.745z" fill="#F8AB73"/><path d="M261.897 42.786a3.055 3.055 0 0 0-1.525-.186 3.803 3.803 0 0 0-2.535 1.46 6.815 6.815 0 0 0-1.335 2.704 23.782 23.782 0 0 0-.516 3.091l-.646-.264a3.274 3.274 0 0 1 2.671-1.291 2.18 2.18 0 0 1 1.419.645c.371.387.619.874.716 1.401a2.99 2.99 0 0 1-.064 1.491 3.31 3.31 0 0 1-.761 1.213 4.866 4.866 0 0 1-2.452 1.291 5.163 5.163 0 0 0 2.2-1.53c.269-.341.467-.734.581-1.155a2.524 2.524 0 0 0 0-1.239 1.895 1.895 0 0 0-1.652-1.491 2.726 2.726 0 0 0-2.077 1.104l-.774.962.135-1.214c.094-1.077.28-2.143.555-3.189a7.039 7.039 0 0 1 1.548-2.898 4.275 4.275 0 0 1 2.955-1.439 3.107 3.107 0 0 1 2.799 1.44 3.05 3.05 0 0 0-1.242-.906zM229.705 46.783a25.481 25.481 0 0 1-3.116 8.449l-.084-.271c.441.27.903.505 1.381.703.487.193.987.35 1.496.471a7.222 7.222 0 0 1-1.567-.258 8.132 8.132 0 0 1-1.503-.561l-.168-.084.09-.188a35.921 35.921 0 0 0 2.787-8.39c.567-2.916.797-5.888.684-8.856a24.193 24.193 0 0 1 0 8.985z" fill="#32338C"/><path d="M229.841 65.19c2.019.195 3.922-1.651 5.257-3.413a10.115 10.115 0 0 0-7.386 2.614 4.848 4.848 0 0 0 2.129.8z" fill="#FE632E"/><path d="M222.693 58.453s2.18 4.157 5.019 5.938a10.112 10.112 0 0 1 7.411-2.582 21.824 21.824 0 0 0 1.891-2.981s-5.355 2.491-7.928 2.207c-2.581-.265-6.393-2.582-6.393-2.582z" fill="#32338C"/><path d="M220.77 46.396c-.883.058-1.651-1.033-1.722-2.408-.071-1.374.594-2.523 1.477-2.581.884-.059 1.652 1.032 1.716 2.407.071 1.375-.587 2.524-1.471 2.582zM238.71 46.73c-.877.059-1.651-1.038-1.722-2.407-.071-1.368.593-2.523 1.477-2.581.884-.059 1.651 1.032 1.716 2.407.071 1.375-.594 2.524-1.471 2.582z" fill="#32328C"/><path d="M216.539 36.094c.257-.374.541-.728.851-1.059a7.744 7.744 0 0 1 1.084-.903 12.8 12.8 0 0 1 1.239-.807c.444-.24.946-.355 1.451-.33a3.183 3.183 0 0 1 2.677 1.453l-.077.277c-.716.426-1.459.804-2.226 1.13a2.519 2.519 0 0 1-.954.194 3.792 3.792 0 0 0-1.039.135c-.347.101-.683.233-1.006.394-.346.156-.68.338-1 .542-.682.432-1.316.937-1.89 1.504l-.232-.148a7.943 7.943 0 0 1 1.122-2.382zM241.258 37.12a7.9 7.9 0 0 0-.999-.542 6.017 6.017 0 0 0-1.007-.394 3.712 3.712 0 0 0-1.032-.135 2.578 2.578 0 0 1-.961-.194 18.613 18.613 0 0 1-2.226-1.13l-.077-.277a3.193 3.193 0 0 1 2.664-1.452 2.763 2.763 0 0 1 1.452.329c.428.245.841.514 1.238.807.389.269.754.571 1.09.903a8.132 8.132 0 0 1 2 3.44l-.206.149a11.309 11.309 0 0 0-1.936-1.504z" fill="#FE642E"/><path d="M218.029 57.388c-1.832 0-3.316-.89-3.316-1.988 0-1.097 1.484-1.988 3.316-1.988 1.832 0 3.316.89 3.316 1.988 0 1.097-1.484 1.988-3.316 1.988zM241.032 57.388c-1.832 0-3.315-.89-3.315-1.988 0-1.097 1.483-1.988 3.315-1.988 1.832 0 3.316.89 3.316 1.988 0 1.097-1.484 1.988-3.316 1.988z" fill="#F8AB74" style="mix-blend-mode:multiply" opacity=".4"/><path d="M215.913 6.783a10.627 10.627 0 0 0 4.516 4.88 14.734 14.734 0 0 0 6.554 1.407c2.29.01 4.579-.1 6.857-.329 4.574-.361 9.186-.988 13.837-.646 2.35.118 4.629.853 6.606 2.13a8.477 8.477 0 0 1 2.354 2.582c.598 1.004.9 2.156.871 3.325a6.36 6.36 0 0 0-1.039-3.228 8.235 8.235 0 0 0-2.386-2.381 13.033 13.033 0 0 0-6.451-1.866c-4.561-.239-9.141.368-13.727.788-2.308.21-4.625.299-6.941.264-2.31-.07-4.722-.387-6.8-1.575a11.03 11.03 0 0 1-4.573-5.215 10.534 10.534 0 0 1-.548-6.81 10.614 10.614 0 0 0 .87 6.674z" fill="#F8AB74"/><path d="M253.248 20.576a7.735 7.735 0 0 0-3.146-2.283 13.54 13.54 0 0 0-7.67-.613 73.967 73.967 0 0 0-7.625 2.046 56.753 56.753 0 0 1-7.779 1.736 29.122 29.122 0 0 1-7.999.071c-2.632-.38-5.322-1.123-7.49-2.795a11.931 11.931 0 0 1-4.347-6.635 11.713 11.713 0 0 1 .883-7.797 11.823 11.823 0 0 0-.541 7.706 11.538 11.538 0 0 0 4.334 6.28 15.86 15.86 0 0 0 7.251 2.583 28.8 28.8 0 0 0 7.812-.13 56.383 56.383 0 0 0 7.696-1.658 62.794 62.794 0 0 1 7.741-1.937 13.97 13.97 0 0 1 7.902.846 8.695 8.695 0 0 1 3.135 2.472 6.802 6.802 0 0 1 1.483 3.634 7.74 7.74 0 0 0-1.64-3.526z" fill="#F8AB74"/><path d="M250.537 21.204a5.514 5.514 0 0 0-2.183-.82 8.379 8.379 0 0 0-4.515.645 14.599 14.599 0 0 0-3.929 2.581c-1.2 1.046-2.342 2.195-3.535 3.28a35.075 35.075 0 0 1 3.154-3.693 12.748 12.748 0 0 1 4.032-2.814 9.725 9.725 0 0 1 2.413-.645 7.448 7.448 0 0 1 2.509.122 5.852 5.852 0 0 1 2.251 1.072 4.76 4.76 0 0 1 1.452 1.923 5.52 5.52 0 0 0-1.649-1.65zM264.139 22.824a5.675 5.675 0 0 1 2.361 1.794 9.528 9.528 0 0 1 1.813 5.583 14.32 14.32 0 0 1-1.123 5.745c-.373.888-.804 1.75-1.29 2.582a25.936 25.936 0 0 1-1.632 2.388c.458-.852.929-1.685 1.322-2.582.42-.854.784-1.733 1.09-2.634a15.84 15.84 0 0 0 .923-5.531 9.755 9.755 0 0 0-1.535-5.274 5.246 5.246 0 0 0-2.058-1.8 4.398 4.398 0 0 0-2.755-.375 4.308 4.308 0 0 1 2.884.104zM258.211 26.154a4.58 4.58 0 0 1 1.567 1.432 10.642 10.642 0 0 1 1.484 3.873c.262 1.366.305 2.765.129 4.144-.084.684-.226 1.36-.426 2.02-.11.33-.219.646-.348.969a1.798 1.798 0 0 1-.232.47c-.104.136-.297.278-.465.181.181.052.303-.103.374-.238.069-.15.115-.309.136-.472.077-.329.135-.645.187-.994.112-.657.184-1.321.213-1.988a16.612 16.612 0 0 0-.271-3.956 12.34 12.34 0 0 0-1.239-3.737 4.436 4.436 0 0 0-1.29-1.433 3.223 3.223 0 0 0-1.845-.607 3.103 3.103 0 0 1 2.026.335z" fill="#F8AB74"/><path fill-rule="evenodd" clip-rule="evenodd" d="m104.451 45.495 11.353 87.962-80.88 10.439L23.57 55.934l80.88-10.44z" fill="#EEF"/><path fill-rule="evenodd" clip-rule="evenodd" d="m101.982 26.324 2.474 19.166-80.88 10.439-2.474-19.166 80.88-10.44z" fill="#7371FC"/><path fill-rule="evenodd" clip-rule="evenodd" d="m23.564 55.927 11.353 87.962-11.01 1.421-11.353-87.962 11.01-1.421z" fill="#91C4FB"/><path fill-rule="evenodd" clip-rule="evenodd" d="m21.103 36.761 2.473 19.166-11.01 1.422-2.474-19.166 11.01-1.422z" fill="#443DC3"/><path fill-rule="evenodd" clip-rule="evenodd" d="m42.234 59.628 2.202 16.76-12.338 1.622-2.202-16.761 12.338-1.621zM56.872 57.707l2.202 16.76-12.338 1.622-2.202-16.76 12.338-1.622zM71.521 56.038l2.167 16.79-12.36 1.596-2.167-16.791 12.36-1.596zM86.195 54.143l2.168 16.79-12.36 1.596-2.168-16.79 12.36-1.596zM100.862 52.248l2.168 16.791-12.36 1.596-2.168-16.791 12.36-1.596zM44.715 78.568l2.202 16.761-12.338 1.621-2.203-16.76 12.339-1.622zM59.3 76.916l2.167 16.791-12.36 1.596-2.168-16.791 12.36-1.596zM73.99 74.731l2.202 16.761-12.338 1.621-2.203-16.76L73.99 74.73zM88.641 73.127l2.167 16.791-12.36 1.596-2.167-16.791 12.36-1.596zM103.272 70.895l2.202 16.761-12.338 1.621-2.202-16.76 12.338-1.621zM47.196 97.52l2.202 16.76-12.338 1.621-2.202-16.76 12.338-1.622zM61.752 95.9l2.167 16.792-12.36 1.595-2.168-16.79 12.36-1.596zM76.42 94.006l2.167 16.791-12.36 1.595-2.168-16.79 12.36-1.596zM91.087 92.112l2.167 16.791-12.36 1.595-2.168-16.791 12.36-1.595zM105.754 90.224l2.168 16.791-12.36 1.595-2.168-16.79 12.36-1.596zM49.524 116.781l2.167 16.791-12.36 1.595-2.167-16.791 12.36-1.595zM64.197 114.879l2.168 16.791-12.36 1.596-2.168-16.791 12.36-1.596zM78.865 112.992l2.168 16.791-12.361 1.595-2.167-16.791 12.36-1.595zM93.533 111.097l2.167 16.791-12.36 1.595-2.167-16.791 12.36-1.595zM108.2 109.203l2.167 16.79-12.36 1.596-2.167-16.791 12.36-1.595z" fill="#FEFFFD"/><path d="m16.591 37.34-.703-5.442a6.239 6.239 0 0 1 3.09-6.212 6.229 6.229 0 0 1 2.31-.772l3.78-.49a6.235 6.235 0 0 1 6.98 5.39l1.212 9.384a6.238 6.238 0 0 1-5.386 6.978v0" stroke="#32338C" stroke-width="2.601" stroke-linecap="round" stroke-linejoin="round"/><path d="m27.384 35.945-.703-5.441a6.244 6.244 0 0 1 5.386-6.984l3.78-.49a6.235 6.235 0 0 1 6.98 5.37l1.206 9.385a6.238 6.238 0 0 1-5.38 6.984v0" stroke="#32338C" stroke-width="2.601" stroke-linecap="round" stroke-linejoin="round"/><path d="m38.176 34.558-.703-5.448a6.244 6.244 0 0 1 5.386-6.983l3.78-.485a6.23 6.23 0 0 1 6.98 5.384l1.213 9.384a6.234 6.234 0 0 1-3.075 6.209 6.223 6.223 0 0 1-2.305.775v0" stroke="#32338C" stroke-width="2.601" stroke-linecap="round" stroke-linejoin="round"/><path d="m48.968 33.164-.703-5.448a6.244 6.244 0 0 1 5.38-6.984l3.767-.484a6.235 6.235 0 0 1 6.98 5.383l1.206 9.385A6.238 6.238 0 0 1 60.218 42v0" stroke="#32338C" stroke-width="2.601" stroke-linecap="round" stroke-linejoin="round"/><path d="m59.76 31.77-.703-5.449a6.232 6.232 0 0 1 5.38-6.958l3.786-.49a6.223 6.223 0 0 1 6.974 5.383l1.212 9.385a6.238 6.238 0 0 1-5.38 6.984v0" stroke="#32338C" stroke-width="2.601" stroke-linecap="round" stroke-linejoin="round"/><path d="m70.552 30.375-.703-5.447a6.232 6.232 0 0 1 3.076-6.203 6.222 6.222 0 0 1 2.304-.775l3.786-.49a6.223 6.223 0 0 1 6.974 5.383l1.212 9.391a6.232 6.232 0 0 1-3.076 6.203c-.71.407-1.492.67-2.303.775v0" stroke="#32338C" stroke-width="2.601" stroke-linecap="round" stroke-linejoin="round"/><path d="m81.338 28.981-.704-5.44a6.232 6.232 0 0 1 5.38-6.985l3.787-.49a6.229 6.229 0 0 1 6.96 5.39l1.213 9.384a6.238 6.238 0 0 1-5.386 6.978v0" stroke="#32338C" stroke-width="2.601" stroke-linecap="round" stroke-linejoin="round"/><path fill-rule="evenodd" clip-rule="evenodd" d="M139.111 248.682c-54.594 0-98.852-44.283-98.852-98.91 0-54.626 44.257-98.91 98.852-98.91 54.594 0 98.851 44.284 98.851 98.91 0 54.627-44.257 98.91-98.851 98.91z" fill="#32338C"/><path fill-rule="evenodd" clip-rule="evenodd" d="M143.762 248.682c-54.595 0-98.852-44.283-98.852-98.91 0-54.626 44.257-98.91 98.852-98.91 54.594 0 98.851 44.284 98.851 98.91 0 54.627-44.257 98.91-98.851 98.91z" fill="#7371FC"/><path d="M203.683 163.301c12.198-18.719 15.882-41.439 14.836-64.03a90.196 90.196 0 0 0-56.082-37.755 90.156 90.156 0 0 0-66.552 11.835 90.251 90.251 0 0 0-39.647 54.778 90.303 90.303 0 0 0 9.521 66.961c28.945 13.696 63.637 15.536 93.414 3.517 17.842-7.203 34.034-19.183 44.51-35.306z" fill="#fff"/><path d="M203.682 163.301c-10.501 16.136-26.693 28.103-44.51 35.307-29.777 12.018-64.469 10.178-93.413-3.518a90.229 90.229 0 0 0 23.874 26.905 90.168 90.168 0 0 0 68.408 16.949 90.168 90.168 0 0 0 33.662-12.65 90.214 90.214 0 0 0 26.049-24.804 90.278 90.278 0 0 0 14.295-33.014 90.281 90.281 0 0 0 .27-35.979 90.268 90.268 0 0 0-13.798-33.226c1.071 22.592-2.612 45.305-14.837 64.03z" fill="#EEF"/><path d="m100.348 113.091 44.394 35.513-1.967 2.33-42.427-37.843z" fill="#32338C"/><path d="m165.036 220.631-22.965-69.793 3.38-2.137 19.585 71.93z" fill="#32338C"/><path fill-rule="evenodd" clip-rule="evenodd" d="M143.762 156.459a6.685 6.685 0 0 1-6.683-6.687 6.685 6.685 0 0 1 6.683-6.687 6.686 6.686 0 0 1 6.683 6.687 6.686 6.686 0 0 1-6.683 6.687z" fill="#FE814B"/><path d="M143.762 59.524v19.183M143.762 220.83v19.183M233.949 149.772h-19.171M72.745 149.772H53.567M67.63 101.382l16.185 10.282M203.708 187.874l16.179 10.289M192.123 73.595 181.84 89.789M105.676 209.748 95.4 225.943M219.887 101.382l-16.179 10.282M83.815 187.874 67.63 198.163M95.4 73.595l10.276 16.194M181.84 209.748l10.283 16.195" stroke="#32338C" stroke-width="2.504" stroke-linecap="round" stroke-linejoin="round"/><path fill-rule="evenodd" clip-rule="evenodd" d="m93.892 199.578 18.145 47.863L24.99 280.44 6.846 232.576l87.046-32.998z" fill="#F8AB74"/><path d="m6.87 232.565 54.728 13.09 32.319-46.093L59.457 240 6.87 232.565z" fill="#FE814B"/><path fill-rule="evenodd" clip-rule="evenodd" d="m270.122 188.903-24.734 104.733-81.146-19.164 24.734-104.733 81.146 19.164z" fill="#32338C"/><path fill-rule="evenodd" clip-rule="evenodd" d="m271.633 189.254-24.734 104.733-81.147-19.164 24.734-104.733 81.147 19.164z" fill="#91C4FB"/><path fill-rule="evenodd" clip-rule="evenodd" d="m262.599 197.813-20.9 88.502-67.862-16.027 20.901-88.501 67.861 16.026z" fill="#fff"/><path d="M245.818 171.426a7.254 7.254 0 0 1 4.506 3.249 7.268 7.268 0 0 1 .889 5.485l-.957 4.052-38.423-9.074.957-4.052a7.26 7.26 0 0 1 8.732-5.398l24.296 5.738z" fill="#32338C"/><path fill-rule="evenodd" clip-rule="evenodd" d="M205.718 204.361a6.704 6.704 0 0 1-7.946-5.173 6.704 6.704 0 1 1 13.115-2.775 6.705 6.705 0 0 1-5.169 7.948z" fill="#EEEEFE"/><path d="m201.186 194.974 2.806 4.537 8.057-4.983" stroke="#FE814B" stroke-width="2.065" stroke-linecap="round" stroke-linejoin="round"/><path d="m217.377 196.594 36.937 8.72M216.417 200.674l36.937 8.726M215.455 204.752l36.931 8.727" stroke="#91C4FB" stroke-width="2.065" stroke-linecap="round" stroke-linejoin="round"/><path d="M203.986 223.506a6.697 6.697 0 0 1-7.35 1.194 6.7 6.7 0 0 1-3.917-6.337 6.704 6.704 0 0 1 8.235-6.292 6.694 6.694 0 0 1 4.164 3.001 6.702 6.702 0 0 1 .822 5.067 6.703 6.703 0 0 1-1.954 3.367z" fill="#EEEEFE"/><path d="m196.284 215.758 2.806 4.538 8.057-4.989" stroke="#FE814B" stroke-width="2.065" stroke-linecap="round" stroke-linejoin="round"/><path d="m212.475 217.377 36.937 8.72M211.514 221.457l36.937 8.72M210.553 225.537l36.93 8.727" stroke="#91C4FB" stroke-width="2.065" stroke-linecap="round" stroke-linejoin="round"/><path fill-rule="evenodd" clip-rule="evenodd" d="M200.571 242.284a6.703 6.703 0 1 1-12.104-5.762 6.704 6.704 0 0 1 8.934-3.174 6.704 6.704 0 0 1 3.17 8.936z" fill="#EEEEFE"/><path d="m191.381 236.542 2.799 4.531 8.057-4.983" stroke="#FE814B" stroke-width="2.065" stroke-linecap="round" stroke-linejoin="round"/><path d="m207.572 238.162 36.937 8.72M206.611 242.24l36.937 8.72M205.65 246.32l36.93 8.727" stroke="#91C4FB" stroke-width="2.065" stroke-linecap="round" stroke-linejoin="round"/><path d="m258.915 186.255-.766 3.248a2.937 2.937 0 0 1-3.532 2.183l-50.038-11.817a2.934 2.934 0 0 1-2.181-3.533l.767-3.247 55.75 13.166z" fill="#91C4FB" style="mix-blend-mode:multiply"/><path fill-rule="evenodd" clip-rule="evenodd" d="M193.344 265.859a6.704 6.704 0 0 1-9.25-2.084 6.704 6.704 0 1 1 11.332-7.165 6.703 6.703 0 0 1-2.082 9.249z" fill="#EEEEFE"/><path d="m186.633 257.357 2.8 4.538 8.057-4.983" stroke="#FE814B" stroke-width="2.065" stroke-linecap="round" stroke-linejoin="round"/><path d="m202.825 258.977 36.93 8.72M201.864 263.057l36.93 8.726M200.896 267.143l36.937 8.72" stroke="#91C4FB" stroke-width="2.065" stroke-linecap="round" stroke-linejoin="round"/><path d="M244.664 100.02a58.237 58.237 0 0 1-3.709 5.809 57.588 57.588 0 0 1 3.084-6.158 59.555 59.555 0 0 1 3.702-5.809 57.518 57.518 0 0 1-3.077 6.158z" fill="#fff"/><path d="M244.296 141.285c-6.444 7.616-15.533 16.136-15.533 16.136l-48.594-20.351 7.135-16.659 35.576 10.973 20.5-29.046 13.869 21.113s-6.508 10.217-12.953 17.834z" fill="#32338C"/><path d="m187.304 120.416-5.025 11.735-4.98-1.698-10.999.452-3.225-1.62a2.324 2.324 0 0 1-1.19-1.4 2.312 2.312 0 0 1 .203-1.827l.877-1.569-.78-.613a2.309 2.309 0 0 1-.73-2.68c.123-.309.31-.588.549-.818l.871-.852-1.187-1.607a2.326 2.326 0 0 1 .794-3.441l1.206-.645-.394-2.137a2.324 2.324 0 0 1 1.736-2.672 5.435 5.435 0 0 1 4.483.871l10.128 7.294 7.663 3.227z" fill="#F8AB72"/><path d="M174.648 102.351a.944.944 0 0 0-.271-.73.85.85 0 0 0-.452-.11 3.26 3.26 0 0 0-2.928 2.15 4.85 4.85 0 0 0 .264 3.756c.148.245.235.522.252.807-.032.245-.12.48-.258.684-.407.71-.807 1.427-1.213 2.143a22.349 22.349 0 0 0 9.734 6.926c-2.335-4.996-4.702-10.127-5.128-15.626z" fill="#F8AB72"/><path d="M173.99 113.723a33.001 33.001 0 0 1-1.29-1.007 25.075 25.075 0 0 1-1.22-1.065c-.393-.368-.787-.736-1.154-1.142.464.29.903.607 1.335.929.432.323.851.646 1.29 1.001.439.355.826.697 1.219 1.071.394.375.787.736 1.155 1.143a19.815 19.815 0 0 1-1.335-.93z" fill="#32338C"/><path d="M184.563 53.573a3.654 3.654 0 0 1 2.309 3.757l-.593 5.99-4.071 6.673a1.715 1.715 0 0 1-1.067-.924 1.718 1.718 0 0 1-.004-1.412c.6-1.872 2.581-6.874 2.581-6.874v-3.525s-1.936 8.166-3.774 9.682c-1.838 1.517-8.496-1.445-10.321-2.91-.878-.717.684-3.028.896-6.455.271-3.647-.761-8.391 2.278-8.52l11.766 4.518z" fill="#F8AB74"/><path d="M180.46 55.883a20.963 20.963 0 0 1-2.148 7.907 19.124 19.124 0 0 1-2.2 3.46 27.506 27.506 0 0 0 1.936-3.582 24.535 24.535 0 0 0 1.367-3.821c.36-1.308.615-2.642.761-3.99a27.79 27.79 0 0 0 .149-4.079 18.98 18.98 0 0 1 .135 4.105zM175.848 54.244a27.746 27.746 0 0 1-.645 3.97 26.17 26.17 0 0 1-1.252 3.82c-.266.62-.55 1.227-.851 1.821-.162.297-.31.594-.49.884a1.426 1.426 0 0 1-.742.646c.291-.154.519-.406.645-.71.155-.29.277-.607.413-.904a30.73 30.73 0 0 0 .754-1.852 30.952 30.952 0 0 0 1.161-3.802c.321-1.29.558-2.598.71-3.918.167-1.317.266-2.642.297-3.97a23.815 23.815 0 0 1 0 4.015z" fill="#32338C"/></g></svg>