<svg width="199" height="196" viewBox="0 0 199 196" fill="none" xmlns="http://www.w3.org/2000/svg">
<mask id="mask0_0:1144" style="mask-type:alpha" maskUnits="userSpaceOnUse" x="0" y="0" width="199" height="196">
<rect width="199" height="196" fill="white"/>
</mask>
<g mask="url(#mask0_0:1144)">
<path opacity="0.2" d="M9.8123 66.5308C22.8546 51.86 45.2358 42.0008 55.8303 25.407C66.4248 8.8133 79.4503 -3.68998 106.511 0.999279C133.573 5.68854 135.602 26.0185 144.937 37.632C154.271 49.2455 190.058 52.1046 191.902 84.5246C193.745 116.945 171.55 119.525 162.376 128.642C153.202 137.759 141.707 177.112 109.813 181.278C70.7244 186.389 44.8934 172.76 21.227 150.836C-6.73898 124.927 -3.23002 81.2016 9.8123 66.5308Z" fill="#F8AB74"/>
<path fill-rule="evenodd" clip-rule="evenodd" d="M156.001 26.9844V169.446H13.1777V26.9844H156.001Z" fill="#91C4FB"/>
<path fill-rule="evenodd" clip-rule="evenodd" d="M156.001 19.832V162.294H13.1777V19.832H156.001Z" fill="#E4E7FF"/>
<path fill-rule="evenodd" clip-rule="evenodd" d="M156.001 19.832V44.6362H13.1777V19.832H156.001Z" fill="#7371FC"/>
<path fill-rule="evenodd" clip-rule="evenodd" d="M26.2198 33.9203C23.6865 33.9203 21.6328 31.8719 21.6328 29.3449C21.6328 26.818 23.6865 24.7695 26.2198 24.7695C28.7532 24.7695 30.8068 26.818 30.8068 29.3449C30.8068 31.8719 28.7532 33.9203 26.2198 33.9203Z" fill="#443DC3"/>
<path d="M24.7379 30.4194C24.347 30.0295 24.1274 29.5007 24.1274 28.9493V8.99889C24.1269 8.72572 24.1804 8.45513 24.285 8.20265C24.3895 7.95016 24.543 7.72076 24.7367 7.5276C24.9303 7.33444 25.1603 7.18133 25.4134 7.07705C25.6665 6.97276 25.9378 6.91937 26.2117 6.91993C26.4852 6.91993 26.756 6.97373 27.0086 7.07826C27.2613 7.18279 27.4908 7.33599 27.684 7.52909C27.8772 7.7222 28.0303 7.95142 28.1346 8.20362C28.2389 8.45583 28.2922 8.72607 28.2917 8.99889V28.9493C28.2917 29.5 28.0727 30.0281 27.6827 30.4179C27.2928 30.8076 26.7637 31.0272 26.2117 31.0283C25.6589 31.0283 25.1288 30.8092 24.7379 30.4194Z" fill="#FE814B"/>
<path fill-rule="evenodd" clip-rule="evenodd" d="M40.8097 33.9203C38.2763 33.9203 36.2227 31.8719 36.2227 29.3449C36.2227 26.818 38.2763 24.7695 40.8097 24.7695C43.343 24.7695 45.3967 26.818 45.3967 29.3449C45.3967 31.8719 43.343 33.9203 40.8097 33.9203Z" fill="#443DC3"/>
<path d="M40.0117 30.87C39.7589 30.7655 39.5291 30.6124 39.3356 30.4194C39.142 30.2263 38.9885 29.9971 38.8838 29.7449C38.779 29.4927 38.7251 29.2223 38.7251 28.9493V8.99888C38.7251 8.72587 38.779 8.45553 38.8838 8.2033C38.9885 7.95107 39.142 7.72188 39.3356 7.52884C39.5291 7.33579 39.7589 7.18265 40.0117 7.07817C40.2646 6.9737 40.5356 6.91992 40.8093 6.91992C41.3621 6.91992 41.8922 7.13895 42.2831 7.52884C42.674 7.91872 42.8936 8.44751 42.8936 8.99888V28.9493C42.8936 29.5007 42.674 30.0295 42.2831 30.4194C41.8922 30.8092 41.3621 31.0283 40.8093 31.0283C40.5356 31.0283 40.2646 30.9745 40.0117 30.87Z" fill="#FE814B"/>
<path fill-rule="evenodd" clip-rule="evenodd" d="M55.4034 33.9203C52.8701 33.9203 50.8164 31.8719 50.8164 29.3449C50.8164 26.818 52.8701 24.7695 55.4034 24.7695C57.9368 24.7695 59.9904 26.818 59.9904 29.3449C59.9904 31.8719 57.9368 33.9203 55.4034 33.9203Z" fill="#443DC3"/>
<path d="M53.9298 30.4194C53.5389 30.0295 53.3193 29.5007 53.3193 28.9493V8.9989C53.3193 8.44752 53.5389 7.91873 53.9298 7.52885C54.3207 7.13897 54.8508 6.91994 55.4036 6.91994C55.678 6.91883 55.9499 6.97178 56.2038 7.07576C56.4576 7.17974 56.6884 7.3327 56.8828 7.52586C57.0772 7.71902 57.2315 7.94858 57.3368 8.20136C57.4421 8.45415 57.4963 8.72518 57.4963 8.9989V28.9493C57.4963 29.2231 57.4421 29.4941 57.3368 29.7469C57.2315 29.9996 57.0772 30.2292 56.8828 30.4224C56.6884 30.6155 56.4576 30.7685 56.2038 30.8725C55.9499 30.9764 55.678 31.0294 55.4036 31.0283C54.8508 31.0283 54.3207 30.8093 53.9298 30.4194Z" fill="#FE814B"/>
<path fill-rule="evenodd" clip-rule="evenodd" d="M69.9928 33.9203C67.4594 33.9203 65.4058 31.8719 65.4058 29.3449C65.4058 26.818 67.4594 24.7695 69.9928 24.7695C72.5261 24.7695 74.5798 26.818 74.5798 29.3449C74.5798 31.8719 72.5261 33.9203 69.9928 33.9203Z" fill="#443DC3"/>
<path d="M68.5221 30.4179C68.1321 30.0281 67.9131 29.5 67.9131 28.9493V8.99889C67.9125 8.72607 67.9659 8.45583 68.0702 8.20362C68.1745 7.95142 68.3276 7.7222 68.5208 7.52909C68.714 7.33599 68.9435 7.18279 69.1961 7.07826C69.4488 6.97373 69.7196 6.91993 69.9931 6.91993C70.267 6.91937 70.5382 6.97276 70.7914 7.07705C71.0445 7.18133 71.2745 7.33444 71.4681 7.5276C71.6618 7.72076 71.8153 7.95016 71.9198 8.20265C72.0244 8.45513 72.0779 8.72572 72.0773 8.99889V28.9493C72.0773 29.5007 71.8577 30.0295 71.4669 30.4194C71.076 30.8092 70.5459 31.0283 69.9931 31.0283C69.4411 31.0272 68.912 30.8076 68.5221 30.4179Z" fill="#FE814B"/>
<path fill-rule="evenodd" clip-rule="evenodd" d="M84.587 33.9203C82.0537 33.9203 80 31.8719 80 29.3449C80 26.818 82.0537 24.7695 84.587 24.7695C87.1203 24.7695 89.174 26.818 89.174 29.3449C89.174 31.8719 87.1203 33.9203 84.587 33.9203Z" fill="#443DC3"/>
<path d="M83.1134 30.4194C82.7225 30.0295 82.5029 29.5007 82.5029 28.9493V8.99888C82.5029 8.44751 82.7225 7.91872 83.1134 7.52884C83.5043 7.13895 84.0344 6.91992 84.5872 6.91992C85.1392 6.92104 85.6683 7.14056 86.0582 7.53032C86.4482 7.92008 86.6672 8.44824 86.6672 8.99888V28.9493C86.6672 29.5 86.4482 30.0281 86.0582 30.4179C85.6683 30.8076 85.1392 31.0272 84.5872 31.0283C84.0344 31.0283 83.5043 30.8092 83.1134 30.4194Z" fill="#FE814B"/>
<path fill-rule="evenodd" clip-rule="evenodd" d="M99.1808 33.9203C96.6474 33.9203 94.5938 31.8719 94.5938 29.3449C94.5938 26.818 96.6474 24.7695 99.1808 24.7695C101.714 24.7695 103.768 26.818 103.768 29.3449C103.768 31.8719 101.714 33.9203 99.1808 33.9203Z" fill="#443DC3"/>
<path d="M97.7071 30.4194C97.3163 30.0295 97.0967 29.5007 97.0967 28.9493V8.99889C97.0961 8.72572 97.1497 8.45513 97.2542 8.20265C97.3587 7.95016 97.5122 7.72076 97.7059 7.5276C97.8995 7.33444 98.1295 7.18133 98.3827 7.07705C98.6358 6.97276 98.9071 6.91937 99.1809 6.91993C99.7337 6.91993 100.264 7.13896 100.655 7.52884C101.046 7.91872 101.265 8.44751 101.265 8.99889V28.9493C101.265 29.5007 101.046 30.0295 100.655 30.4194C100.264 30.8092 99.7337 31.0283 99.1809 31.0283C98.6281 31.0283 98.098 30.8092 97.7071 30.4194Z" fill="#FE814B"/>
<path fill-rule="evenodd" clip-rule="evenodd" d="M113.771 33.9203C111.237 33.9203 109.184 31.8719 109.184 29.3449C109.184 26.818 111.237 24.7695 113.771 24.7695C116.304 24.7695 118.358 26.818 118.358 29.3449C118.358 31.8719 116.304 33.9203 113.771 33.9203Z" fill="#443DC3"/>
<path d="M112.973 30.87C112.72 30.7655 112.49 30.6124 112.296 30.4194C112.103 30.2263 111.949 29.9971 111.845 29.7449C111.74 29.4927 111.686 29.2223 111.686 28.9493V8.99888C111.686 8.72587 111.74 8.45553 111.845 8.2033C111.949 7.95107 112.103 7.72188 112.296 7.52884C112.49 7.33579 112.72 7.18265 112.973 7.07817C113.226 6.9737 113.497 6.91992 113.77 6.91992C114.32 6.92437 114.846 7.14537 115.233 7.53477C115.62 7.92417 115.838 8.45042 115.838 8.99888V28.9493C115.838 29.4978 115.62 30.024 115.233 30.4134C114.846 30.8028 114.32 31.0238 113.77 31.0283C113.497 31.0283 113.226 30.9745 112.973 30.87Z" fill="#FE814B"/>
<path fill-rule="evenodd" clip-rule="evenodd" d="M128.364 33.9203C125.831 33.9203 123.777 31.8719 123.777 29.3449C123.777 26.818 125.831 24.7695 128.364 24.7695C130.898 24.7695 132.951 26.818 132.951 29.3449C132.951 31.8719 130.898 33.9203 128.364 33.9203Z" fill="#443DC3"/>
<path d="M126.89 30.4194C126.499 30.0295 126.28 29.5007 126.28 28.9493V8.99888C126.28 8.44751 126.499 7.91872 126.89 7.52884C127.281 7.13895 127.811 6.91992 128.364 6.91992C128.917 6.91992 129.447 7.13895 129.838 7.52884C130.229 7.91872 130.448 8.44751 130.448 8.99888V28.9493C130.448 29.5007 130.229 30.0295 129.838 30.4194C129.447 30.8092 128.917 31.0283 128.364 31.0283C127.811 31.0283 127.281 30.8092 126.89 30.4194Z" fill="#FE814B"/>
<path fill-rule="evenodd" clip-rule="evenodd" d="M142.958 33.9203C140.425 33.9203 138.371 31.8719 138.371 29.3449C138.371 26.818 140.425 24.7695 142.958 24.7695C145.491 24.7695 147.545 26.818 147.545 29.3449C147.545 31.8719 145.491 33.9203 142.958 33.9203Z" fill="#443DC3"/>
<path d="M141.484 30.4194C141.094 30.0295 140.874 29.5007 140.874 28.9493V8.99889C140.873 8.72572 140.927 8.45513 141.032 8.20265C141.136 7.95016 141.29 7.72076 141.483 7.5276C141.677 7.33444 141.907 7.18133 142.16 7.07705C142.413 6.97276 142.684 6.91937 142.958 6.91993C143.232 6.91993 143.503 6.97373 143.755 7.07826C144.008 7.18279 144.237 7.33599 144.431 7.52909C144.624 7.7222 144.777 7.95142 144.881 8.20362C144.985 8.45583 145.039 8.72607 145.038 8.99889V28.9493C145.038 29.5 144.819 30.0281 144.429 30.4179C144.039 30.8076 143.51 31.0272 142.958 31.0283C142.405 31.0283 141.875 30.8092 141.484 30.4194Z" fill="#FE814B"/>
<g style="mix-blend-mode:multiply">
<path fill-rule="evenodd" clip-rule="evenodd" d="M36.975 66.502V81.8053H21.6328V66.502H36.975Z" fill="#E4E7FF"/>
</g>
<g style="mix-blend-mode:multiply">
<path fill-rule="evenodd" clip-rule="evenodd" d="M55.5643 66.502V81.8053H40.2222V66.502H55.5643Z" fill="#E4E7FF"/>
</g>
<g style="mix-blend-mode:multiply">
<path fill-rule="evenodd" clip-rule="evenodd" d="M74.1571 66.502V81.8053H58.8149V66.502H74.1571Z" fill="#E4E7FF"/>
</g>
<g style="mix-blend-mode:multiply">
<path fill-rule="evenodd" clip-rule="evenodd" d="M92.7465 66.502V81.8053H77.4043V66.502H92.7465Z" fill="#E4E7FF"/>
</g>
<g style="mix-blend-mode:multiply">
<path fill-rule="evenodd" clip-rule="evenodd" d="M111.34 66.502V81.8053H95.9976V66.502H111.34Z" fill="#E4E7FF"/>
</g>
<g style="mix-blend-mode:multiply">
<path fill-rule="evenodd" clip-rule="evenodd" d="M129.933 66.502V81.8053H114.591V66.502H129.933Z" fill="#E4E7FF"/>
</g>
<g style="mix-blend-mode:multiply">
<path fill-rule="evenodd" clip-rule="evenodd" d="M148.522 66.502V81.8053H133.18V66.502H148.522Z" fill="#E4E7FF"/>
</g>
<g style="mix-blend-mode:multiply">
<path fill-rule="evenodd" clip-rule="evenodd" d="M36.975 85.2168V100.52H21.6328V85.2168H36.975Z" fill="#E4E7FF"/>
</g>
<g style="mix-blend-mode:multiply">
<path fill-rule="evenodd" clip-rule="evenodd" d="M55.5643 85.2168V100.52H40.2222V85.2168H55.5643Z" fill="#E4E7FF"/>
</g>
<g style="mix-blend-mode:multiply">
<path fill-rule="evenodd" clip-rule="evenodd" d="M74.1571 85.2168V100.52H58.8149V85.2168H74.1571Z" fill="#E4E7FF"/>
</g>
<g style="mix-blend-mode:multiply">
<path fill-rule="evenodd" clip-rule="evenodd" d="M92.7465 85.2168V100.52H77.4043V85.2168H92.7465Z" fill="#E4E7FF"/>
</g>
<g style="mix-blend-mode:multiply">
<path fill-rule="evenodd" clip-rule="evenodd" d="M111.34 85.2168V100.52H95.9976V85.2168H111.34Z" fill="#E4E7FF"/>
</g>
<g style="mix-blend-mode:multiply">
<path fill-rule="evenodd" clip-rule="evenodd" d="M129.933 85.2168V100.52H114.591V85.2168H129.933Z" fill="#E4E7FF"/>
</g>
<g style="mix-blend-mode:multiply">
<path fill-rule="evenodd" clip-rule="evenodd" d="M148.522 85.2168V100.52H133.18V85.2168H148.522Z" fill="#E4E7FF"/>
</g>
<g style="mix-blend-mode:multiply">
<path fill-rule="evenodd" clip-rule="evenodd" d="M36.975 103.928V119.231H21.6328V103.928H36.975Z" fill="#E4E7FF"/>
</g>
<g style="mix-blend-mode:multiply">
<path fill-rule="evenodd" clip-rule="evenodd" d="M55.5643 103.928V119.231H40.2222V103.928H55.5643Z" fill="#E4E7FF"/>
</g>
<g style="mix-blend-mode:multiply">
<path fill-rule="evenodd" clip-rule="evenodd" d="M74.1571 103.928V119.231H58.8149V103.928H74.1571Z" fill="#E4E7FF"/>
</g>
<g style="mix-blend-mode:multiply">
<path fill-rule="evenodd" clip-rule="evenodd" d="M92.7465 103.928V119.231H77.4043V103.928H92.7465Z" fill="#E4E7FF"/>
</g>
<g style="mix-blend-mode:multiply">
<path fill-rule="evenodd" clip-rule="evenodd" d="M111.34 103.928V119.231H95.9976V103.928H111.34Z" fill="#E4E7FF"/>
</g>
<g style="mix-blend-mode:multiply">
<path fill-rule="evenodd" clip-rule="evenodd" d="M129.933 103.928V119.231H114.591V103.928H129.933Z" fill="#E4E7FF"/>
</g>
<g style="mix-blend-mode:multiply">
<path fill-rule="evenodd" clip-rule="evenodd" d="M148.522 103.928V119.231H133.18V103.928H148.522Z" fill="#E4E7FF"/>
</g>
<g style="mix-blend-mode:multiply">
<path fill-rule="evenodd" clip-rule="evenodd" d="M36.975 122.637V137.94H21.6328V122.637H36.975Z" fill="#E4E7FF"/>
</g>
<g style="mix-blend-mode:multiply">
<path fill-rule="evenodd" clip-rule="evenodd" d="M55.5643 122.637V137.94H40.2222V122.637H55.5643Z" fill="#E4E7FF"/>
</g>
<g style="mix-blend-mode:multiply">
<path fill-rule="evenodd" clip-rule="evenodd" d="M74.1571 122.637V137.94H58.8149V122.637H74.1571Z" fill="#E4E7FF"/>
</g>
<g style="mix-blend-mode:multiply">
<path fill-rule="evenodd" clip-rule="evenodd" d="M92.7465 122.637V137.94H77.4043V122.637H92.7465Z" fill="#E4E7FF"/>
</g>
<g style="mix-blend-mode:multiply">
<path fill-rule="evenodd" clip-rule="evenodd" d="M111.34 122.637V137.94H95.9976V122.637H111.34Z" fill="#E4E7FF"/>
</g>
<g style="mix-blend-mode:multiply">
<path fill-rule="evenodd" clip-rule="evenodd" d="M129.933 122.637V137.94H114.591V122.637H129.933Z" fill="#E4E7FF"/>
</g>
<g style="mix-blend-mode:multiply">
<path fill-rule="evenodd" clip-rule="evenodd" d="M148.522 122.637V137.94H133.18V122.637H148.522Z" fill="#E4E7FF"/>
</g>
<g style="mix-blend-mode:multiply">
<path fill-rule="evenodd" clip-rule="evenodd" d="M148.522 52.0664V53.7448H58.8149V52.0664H148.522Z" fill="#E4E7FF"/>
</g>
<g style="mix-blend-mode:multiply">
<path fill-rule="evenodd" clip-rule="evenodd" d="M148.522 55.4395V57.1178H58.8149V55.4395H148.522Z" fill="#E4E7FF"/>
</g>
<g style="mix-blend-mode:multiply">
<path fill-rule="evenodd" clip-rule="evenodd" d="M148.522 58.8184V60.4967H58.8149V58.8184H148.522Z" fill="#E4E7FF"/>
</g>
<g style="mix-blend-mode:multiply">
<path fill-rule="evenodd" clip-rule="evenodd" d="M148.526 143.941V145.62H21.6328V143.941H148.526Z" fill="#E4E7FF"/>
</g>
<g style="mix-blend-mode:multiply">
<path fill-rule="evenodd" clip-rule="evenodd" d="M148.526 147.314V148.993H21.6328V147.314H148.526Z" fill="#E4E7FF"/>
</g>
<g style="mix-blend-mode:multiply">
<path fill-rule="evenodd" clip-rule="evenodd" d="M148.526 150.693V152.372H21.6328V150.693H148.526Z" fill="#E4E7FF"/>
</g>
<path fill-rule="evenodd" clip-rule="evenodd" d="M55.5683 52.0664V60.4919H22.6855V52.0664H55.5683Z" fill="#FE814B"/>
<path d="M13.1777 163.406H155.895" stroke="#E4E7FF" stroke-width="0.211383"/>
<path d="M13.1777 165.025H155.895" stroke="#E4E7FF" stroke-width="0.211383"/>
<path d="M13.1777 166.641H155.895" stroke="#E4E7FF" stroke-width="0.211383"/>
<path d="M13.1777 168.256H155.895" stroke="#E4E7FF" stroke-width="0.211383"/>
<path d="M64.1379 70.5211L65.5288 72.8278L68.3106 77.4327H66.7548C68.2936 74.1351 69.9847 70.9245 71.828 67.8012C72.758 66.2409 73.7262 64.6975 74.7662 63.1963C75.7884 61.6767 76.9023 60.2206 78.1018 58.8359C77.4254 60.548 76.6982 62.2095 75.933 63.8583C75.1678 65.5072 74.3815 67.1349 73.5613 68.75C71.9167 71.9718 70.1792 75.1471 68.3021 78.2508L67.4566 79.6846L66.7632 78.2635C66.3616 77.4454 65.9769 76.6315 65.6048 75.8092C65.2328 74.9869 64.8819 74.1519 64.531 73.317C64.1801 72.482 63.8631 71.6302 63.5544 70.7868C63.2421 69.9348 62.9879 69.0627 62.7935 68.1765C63.2162 68.9777 63.6728 69.7494 64.1379 70.5211Z" fill="#32338C"/>
<path d="M63.4316 108.611L64.8225 110.918L67.6001 115.544H66.0485C67.5874 112.246 69.2785 109.036 71.1217 105.913C72.0518 104.352 73.02 102.809 74.0811 101.308C75.1032 99.789 76.2156 98.333 77.4125 96.9473C76.7403 98.6594 76.0131 100.321 75.2479 101.97C74.4827 103.618 73.6964 105.246 72.8762 106.861C71.2317 110.083 69.4941 113.258 67.617 116.362L66.7715 117.796L66.0528 116.387C65.6554 115.569 65.2707 114.755 64.8986 113.933C64.5266 113.111 64.1757 112.276 63.8248 111.441C63.4739 110.606 63.1568 109.754 62.8482 108.911C62.535 108.047 62.2794 107.164 62.083 106.267C62.5058 107.068 62.9624 107.84 63.4316 108.611Z" fill="#FE814B"/>
<path d="M29.0016 124.8C30.1938 126.533 31.3268 128.271 32.4556 130.021C34.7132 133.521 36.8862 137.059 39.1269 140.563C36.4719 137.367 33.8761 134.12 31.2169 130.936C29.8894 129.333 28.5493 127.773 27.1837 126.213C25.8182 124.652 24.4231 123.155 22.9814 121.772L25.2306 119.693C26.5961 121.38 27.8094 123.067 29.0016 124.8Z" fill="#7371FC"/>
<path d="M31.9399 124.92C33.0672 123.269 34.2284 121.651 35.4235 120.066C36.6199 118.472 37.8713 116.933 39.1015 115.381C38.0827 117.068 37.0384 118.754 36.0618 120.483C35.0852 122.212 34.1509 123.941 33.2631 125.696C31.4791 129.208 29.881 132.805 28.4605 136.449L25.6787 135.158C27.6065 131.641 29.6936 128.229 31.9399 124.92Z" fill="#7371FC"/>
<path d="M49.0702 83.1415C46.5928 82.3908 43.7899 83.1415 41.8029 84.7819C39.8425 86.5081 38.5824 88.8898 38.2601 91.4784C37.9734 93.1325 38.1715 94.834 38.8309 96.3785C40.0357 98.9719 42.8218 100.503 45.5951 101.156C49.0406 101.962 52.9724 101.578 55.6189 99.2249C58.2654 96.8719 59.1152 92.8995 58.1174 89.5259C57.3142 86.8144 55.2934 84.3728 52.5834 83.5589C51.3331 83.215 50.0261 83.1261 48.7405 83.2975C45.9249 83.6011 43.1473 84.727 41.1603 86.7427C39.1733 88.7584 38.0826 91.6935 38.5899 94.4598C38.893 96.0264 39.6129 97.4829 40.6741 98.6767C43.9421 102.417 50.1018 103.202 54.2026 100.397C58.3035 97.593 59.8 91.5796 57.4833 87.1897C56.3503 85.0475 54.2745 83.2637 51.852 83.0782C50.0172 82.939 48.081 83.6897 46.3899 82.9686" stroke="#32338C" stroke-width="0.422766"/>
<path d="M47.0369 87.9492L53.6067 95.8434L42.8135 92.4487L53.6067 89.1426L46.4746 96.9524L47.0369 87.9492Z" fill="#32338C"/>
<path d="M47.8739 101.443C46.91 108.996 49.7552 116.844 54.9975 122.376C60.2398 127.909 67.7143 131.156 75.3241 131.725C82.9338 132.295 90.4337 130.38 97.0584 126.598" stroke="#32338C" stroke-width="0.845531"/>
<path d="M90.2354 125.506C92.4971 125.928 97.0588 126.526 97.0588 126.526L93.6471 131.823" stroke="#32338C" stroke-width="0.997727"/>
<path d="M145.292 195.999L144.586 168.302L152.665 195.999H174.767C173.655 182.927 172.205 168.307 170.687 159.367C167.44 140.196 160.118 136.372 160.118 136.372L133.459 135.49C133.459 135.49 123.595 148.63 124.014 166.32C124.196 173.814 125.248 185.276 126.407 195.999H145.292Z" fill="#32338C"/>
<path d="M121.287 114.068C120.903 114.062 120.524 114.147 120.179 114.317C119.929 114.504 119.723 114.745 119.576 115.021C119.43 115.297 119.347 115.603 119.334 115.915C119.123 117.513 119.537 119.128 120.023 120.668C120.13 120.997 120.24 121.325 120.353 121.654C121.347 121.264 122.259 120.692 123.042 119.968C124.633 118.442 125.694 116.449 126.069 114.279C124.485 114.057 122.884 113.986 121.287 114.068Z" fill="#FE5228"/>
<path d="M139.906 92.605C139.331 92.4321 138.193 93.2839 137.728 93.5664C134.591 95.4599 132.232 98.475 130.634 101.726C128.685 105.694 127.743 110.063 126.829 114.377C126.584 114.335 126.331 114.305 126.081 114.272C125.712 116.441 124.657 118.436 123.071 119.965C122.288 120.689 121.376 121.261 120.382 121.651C122.42 127.58 125.916 133.29 131.467 136.145C132.38 136.613 133.513 136.988 134.397 136.474C135.281 135.96 135.513 134.741 135.631 133.699C136.9 122.482 139.436 111.442 141.03 100.263C141.275 98.4834 141.495 96.59 141.06 94.8189C140.916 94.2412 140.574 92.8032 139.906 92.605Z" fill="#FE814B"/>
<path d="M154.474 89.9984C154.474 89.9984 140.295 89.8719 136.494 94.2618C132.693 98.6516 129.675 108.313 129.675 108.313L133.48 135.491C133.48 135.491 134.968 140.155 142.988 142.158C151.008 144.161 160.139 136.372 160.139 136.372L171.74 97.7829L154.474 89.9984Z" fill="#7371FC"/>
<path fill-rule="evenodd" clip-rule="evenodd" d="M175.353 125.067L167.436 140.21L163.793 138.306L171.709 123.162L175.353 125.067Z" fill="#E4E7FF"/>
<path fill-rule="evenodd" clip-rule="evenodd" d="M179 126.971L171.083 142.115L167.44 140.21L175.356 125.066L179 126.971Z" fill="#D0CDFF"/>
<path fill-rule="evenodd" clip-rule="evenodd" d="M182.673 128.865L174.758 144.01L171.115 142.106L179.029 126.961L182.673 128.865Z" fill="#E4E7FF"/>
<path fill-rule="evenodd" clip-rule="evenodd" d="M187.611 130.565L179.766 145.781L176.105 143.894L183.95 128.678L187.611 130.565Z" fill="#D0CDFF"/>
<path d="M196.065 135.894C197.336 136.56 198.291 137.703 198.72 139.071C199.149 140.439 199.018 141.92 198.354 143.19L195.447 148.75C194.783 150.02 193.641 150.974 192.272 151.402C190.902 151.83 189.418 151.697 188.146 151.032L178.373 145.923L186.29 130.779L186.288 130.783L196.065 135.894Z" fill="#FE814B"/>
<path d="M68.1074 78.6543L76.4782 88.3533C76.7276 88.0455 76.9982 87.7545 77.2307 87.434C78.8536 85.2141 79.9153 82.6362 80.3253 79.9194L68.1074 78.6543Z" fill="#32338C"/>
<path d="M80.3257 79.9199C79.9163 82.6382 78.8546 85.2176 77.231 87.4388C76.9985 87.7592 76.7279 88.0502 76.4785 88.3581L83.2216 96.1847L91.1823 81.0585L80.3257 79.9199Z" fill="#FEC5B7"/>
<path fill-rule="evenodd" clip-rule="evenodd" d="M87.24 88.5835L167.708 130.865L166.236 133.667L85.7681 91.3848L87.24 88.5835Z" fill="#7355FC"/>
<path fill-rule="evenodd" clip-rule="evenodd" d="M84.2944 94.1896L164.762 136.471L163.753 138.391L83.2856 96.1094L84.2944 94.1896Z" fill="#7355FC"/>
<path fill-rule="evenodd" clip-rule="evenodd" d="M85.7669 91.3843L166.235 133.666L164.763 136.467L84.2949 94.1855L85.7669 91.3843Z" fill="#7371FC"/>
<path fill-rule="evenodd" clip-rule="evenodd" d="M88.698 85.7688L169.173 128.037L167.702 130.838L87.2266 88.5703L88.698 85.7688Z" fill="#7371FC"/>
<path fill-rule="evenodd" clip-rule="evenodd" d="M90.1819 82.9839L170.65 125.266L169.178 128.067L88.71 85.7852L90.1819 82.9839Z" fill="#7355FC"/>
<path fill-rule="evenodd" clip-rule="evenodd" d="M91.2336 80.9804L171.701 123.262L170.649 125.264L90.1816 82.9824L91.2336 80.9804Z" fill="#7371FC"/>
<path d="M131.907 102.342L161.108 115.06L160.313 117.19L131.907 102.342Z" fill="#32338C"/>
<path d="M136.595 75.8366C136.047 75.8268 135.509 75.6861 135.027 75.4264C134.544 75.1667 134.131 74.7955 133.822 74.3438C133.052 73.0577 133.56 71.3287 134.558 70.2112C132.444 69.8992 130.33 68.2545 129.852 66.1798C129.624 65.1358 129.706 64.048 130.089 63.05C130.472 62.0521 131.139 61.1876 132.008 60.5628C132.214 60.4515 132.382 60.2811 132.49 60.0736C132.535 59.8623 132.517 59.6427 132.439 59.4411C132.068 58.0863 132.061 56.658 132.417 55.2994C132.774 53.9407 133.482 52.6995 134.471 51.7C135.461 50.7005 136.696 49.9779 138.053 49.6047C139.411 49.2314 140.842 49.2207 142.205 49.5734C142.429 47.5071 143.896 45.4787 145.587 44.298C147.342 43.1563 149.39 42.5469 151.485 42.5437C153.059 42.4616 154.627 42.7855 156.038 43.4841C156.739 43.8395 157.355 44.3427 157.841 44.9586C158.328 45.5746 158.675 46.2888 158.858 47.0517C160.431 45.5715 163.141 45.5209 165.107 46.4191C166.788 47.1593 168.161 48.4551 168.996 50.0879C169.401 50.9041 169.62 51.7995 169.638 52.71C169.655 53.6206 169.471 54.5238 169.097 55.3549C171.444 55.4772 173.773 57.2061 174.708 59.3568C175.642 61.5074 174.97 64.3159 173.017 65.5979C173.831 66.1898 174.5 66.9583 174.974 67.8455C175.394 68.6951 175.594 69.6358 175.557 70.5823C175.595 71.4148 175.483 72.2473 175.228 73.0408C174.919 73.8707 174.384 74.5982 173.684 75.1414C172.983 75.6845 172.144 76.0217 171.262 76.1149C171.357 76.5145 171.372 76.9287 171.306 77.3339C171.24 77.7392 171.094 78.1274 170.877 78.4764C170.453 79.1968 169.876 79.8157 169.186 80.2897C168.646 80.7019 168.04 81.0199 167.394 81.2301C166.463 81.4916 165.472 81.4526 164.565 81.1185C163.657 80.7845 162.879 80.1726 162.342 79.3704L139.804 75.2294C138.784 75.6367 137.694 75.843 136.595 75.8366Z" fill="#32338C"/>
<path d="M154.474 90.0114C153.31 90.8388 151.999 91.437 150.61 91.7741C149.597 92.0829 148.531 92.1848 147.478 92.0735C147.359 92.0735 147.245 92.0313 147.131 92.006C147.151 92.2137 147.211 92.4156 147.308 92.6006C147.63 93.1699 148.332 93.3976 148.978 93.5157C150.726 93.836 152.523 93.7523 154.233 93.2711C154.425 93.2339 154.6 93.1398 154.736 93.0012C154.843 92.8353 154.896 92.6412 154.889 92.4445C154.976 91.3405 155.15 90.2449 155.409 89.168C155.121 89.4744 154.809 89.7565 154.474 90.0114Z" fill="#FE814B"/>
<path d="M154.474 89.9988C154.809 89.7439 155.121 89.4618 155.409 89.1554C155.81 87.4011 156.335 85.6975 156.652 83.9053C154.884 83.2474 151.705 84.7487 150.285 85.7987C148.454 87.127 147.144 89.2566 147.106 91.5127C147.101 91.6691 147.11 91.8257 147.131 91.9807C147.245 92.006 147.359 92.0314 147.478 92.0482C148.531 92.1636 149.596 92.0661 150.61 91.7615C151.999 91.4245 153.31 90.8262 154.474 89.9988Z" fill="#FE5228"/>
<path d="M146.882 60.7332C147.419 62.3694 147.829 64.4061 149.418 65.0724C150.337 65.4034 151.337 65.4373 152.276 65.1694C153.609 64.8543 154.846 64.2237 155.882 63.3308C155.811 64.6634 155.43 66.755 156.208 67.8388C156.519 68.2506 156.905 68.601 157.345 68.8719C158.547 69.6467 159.962 70.0244 161.391 69.9515C159.823 71.6846 158.854 74.3666 159.637 76.5679C160.009 77.5966 160.634 78.5159 161.454 79.2414C161.611 78.9631 161.776 78.6848 161.924 78.398C163.078 76.2981 163.862 74.0158 164.241 71.6509C164.613 69.2694 164.232 66.8312 163.15 64.676C161.556 61.7242 158.461 59.7886 155.248 58.7723C153.686 58.2284 152.035 57.9865 150.382 58.0596C148.188 58.2114 145.127 59.0464 143.517 60.6699C142.491 61.7431 141.654 62.9804 141.039 64.3302C140.752 64.9375 140.498 65.5574 140.274 66.1773C141.23 66.353 142.217 66.2535 143.119 65.8905C145.191 65.0471 146.586 62.9387 146.882 60.7332Z" fill="#32338C"/>
<path d="M161.395 69.9507C159.966 70.0236 158.551 69.6459 157.349 68.8712C156.909 68.6002 156.523 68.2498 156.212 67.838C155.434 66.7542 155.815 64.6626 155.887 63.3301C154.85 64.2229 153.613 64.8536 152.28 65.1687C151.341 65.4365 150.341 65.4026 149.422 65.0717C147.829 64.4054 147.419 62.3686 146.886 60.7324C146.59 62.9379 145.195 65.0506 143.123 65.8898C142.221 66.2477 141.236 66.3427 140.282 66.1639C140.029 66.8765 139.809 67.5892 139.635 68.2723C138.988 71.0585 138.746 73.923 138.917 76.778C139.044 79.8901 139.504 83.1034 141.132 85.7474C142.76 88.3914 145.782 90.3861 148.898 90.0065C150.052 89.8254 151.162 89.4352 152.175 88.8553C155.958 86.8354 158.939 83.5588 161.116 79.8563C161.239 79.6539 161.349 79.4346 161.463 79.2364C160.641 78.5126 160.015 77.5948 159.641 76.5671C158.867 74.3658 159.827 71.6839 161.395 69.9507Z" fill="#FE814B"/>
<path d="M159.315 79.1305C159.37 80.1425 159.641 81.2389 160.499 81.804C160.828 81.9866 161.196 82.0898 161.573 82.1051C161.949 82.1205 162.324 82.0477 162.668 81.8926C163.351 81.5754 163.954 81.1084 164.431 80.5263C165.215 79.703 165.785 78.7013 166.092 77.6081C166.242 77.0614 166.273 76.4889 166.181 75.9294C166.09 75.3699 165.88 74.8365 165.564 74.3653C164.913 73.4713 163.666 72.7249 162.566 73.0707C161.463 73.4598 160.553 74.259 160.026 75.3015C159.448 76.4909 159.203 77.8136 159.315 79.1305Z" fill="#FE814B"/>
<path d="M164.317 74.9625C164.088 74.8393 163.832 74.7763 163.572 74.7796C163.32 74.7791 163.071 74.8288 162.839 74.9259C162.606 75.0229 162.396 75.1653 162.219 75.3446C161.845 75.6967 161.555 76.1294 161.374 76.6097C161.199 77.0985 161.058 77.5987 160.951 78.1068L160.655 77.9381C160.835 77.752 161.056 77.6107 161.3 77.5257C161.545 77.4407 161.806 77.4144 162.063 77.4489C162.328 77.5037 162.565 77.6537 162.727 77.8706C162.88 78.0802 162.971 78.3287 162.989 78.5875C163.008 78.8351 162.966 79.0837 162.865 79.3111C162.765 79.5384 162.61 79.7375 162.414 79.8905C162.037 80.176 161.587 80.3486 161.116 80.3881C161.56 80.2898 161.97 80.0759 162.304 79.7682C162.463 79.6252 162.585 79.4456 162.658 79.2449C162.732 79.0443 162.756 78.8287 162.727 78.617C162.71 78.418 162.631 78.2293 162.5 78.0779C162.369 77.9264 162.194 77.82 161.999 77.7736C161.796 77.7579 161.592 77.7877 161.402 77.8606C161.212 77.9336 161.041 78.0479 160.9 78.1953L160.478 78.617L160.617 78.0266C160.734 77.4995 160.895 76.9832 161.099 76.4832C161.304 75.9658 161.63 75.5046 162.05 75.138C162.261 74.951 162.507 74.808 162.775 74.7175C163.042 74.627 163.325 74.5907 163.606 74.6109C163.876 74.6321 164.136 74.7239 164.36 74.8771C164.583 75.0304 164.762 75.2396 164.879 75.4838C164.739 75.2652 164.546 75.0858 164.317 74.9625Z" fill="#32338C"/>
<path d="M143.694 74.1898C143.254 74.1561 142.937 73.5783 142.988 72.891C143.038 72.2036 143.44 71.6807 143.88 71.7144C144.319 71.7482 144.624 72.3259 144.586 73.0133C144.535 73.6964 144.133 74.2235 143.694 74.1898Z" fill="#32328C"/>
<path d="M152.572 75.4752C152.133 75.4415 151.815 74.8596 151.866 74.1722C151.917 73.4848 152.319 72.9619 152.758 72.9957C153.198 73.0294 153.515 73.6114 153.464 74.2945C153.413 74.9776 153.012 75.509 152.572 75.4752Z" fill="#32328C"/>
<path d="M142.218 68.8329C142.531 68.4879 142.903 68.2021 143.317 67.9895C143.529 67.8799 143.74 67.7618 143.981 67.669C144.217 67.5782 144.472 67.5534 144.721 67.5973C144.975 67.6375 145.218 67.7325 145.431 67.8756C145.663 68.0189 145.846 68.2292 145.955 68.4787L145.9 68.6136C145.638 68.7275 145.431 68.8034 145.241 68.8708C145.072 68.9354 144.9 68.9903 144.725 69.0353C144.565 69.0776 144.399 69.0905 144.235 69.0733C144.061 69.0479 143.884 69.0479 143.711 69.0733C143.346 69.1415 142.993 69.2563 142.658 69.4148C142.293 69.5862 141.947 69.7954 141.626 70.0389L141.512 69.9462C141.686 69.5395 141.924 69.1636 142.218 68.8329Z" fill="#32338C"/>
<path d="M154.445 70.8989C154.159 70.6619 153.844 70.4634 153.506 70.3085C153.344 70.2424 153.173 70.1984 152.999 70.1778C152.836 70.1541 152.678 70.1012 152.534 70.0218C152.375 69.9331 152.221 69.836 152.073 69.7308C151.908 69.6212 151.726 69.4989 151.498 69.3091L151.477 69.1658C151.647 68.9525 151.877 68.794 152.137 68.7103C152.378 68.6219 152.637 68.5888 152.893 68.6133C153.144 68.6341 153.385 68.7215 153.591 68.8663C153.789 69.0141 153.978 69.1732 154.157 69.3429C154.502 69.6553 154.789 70.0266 155.003 70.4393C155.212 70.8353 155.354 71.2626 155.426 71.7044L155.29 71.7423C155.038 71.4331 154.755 71.1505 154.445 70.8989Z" fill="#32338C"/>
<g style="mix-blend-mode:multiply" opacity="0.4">
<path d="M141.635 79.4732C140.709 79.3594 140.041 78.828 140.109 78.2841C140.176 77.7401 140.954 77.3901 141.88 77.5039C142.806 77.6178 143.474 78.1533 143.406 78.6973C143.339 79.2371 142.561 79.5871 141.635 79.4732Z" fill="#F8AB74"/>
</g>
<g style="mix-blend-mode:multiply" opacity="0.4">
<path d="M153.063 80.8989C152.137 80.785 151.469 80.2537 151.536 79.7097C151.604 79.1657 152.382 78.8199 153.308 78.9338C154.234 79.0476 154.902 79.5832 154.834 80.123C154.766 80.667 153.988 81.0128 153.063 80.8989Z" fill="#F8AB74"/>
</g>
<path d="M147.778 74.9471C147.573 75.4137 147.26 75.8255 146.865 76.1489C146.485 76.4441 146.146 76.7871 145.854 77.1695C145.603 77.5414 145.504 77.9949 145.576 78.4376C145.648 78.8802 145.887 79.2788 146.243 79.552C146.617 79.8319 147.074 79.9802 147.541 79.9737C148.023 80.0132 148.502 79.8768 148.89 79.59C148.525 79.9303 148.045 80.1202 147.545 80.1213C147.293 80.1332 147.04 80.1133 146.793 80.0623C146.538 80.0066 146.297 79.9021 146.083 79.7544C145.865 79.6095 145.679 79.4231 145.533 79.206C145.388 78.9889 145.288 78.7454 145.237 78.4894C145.141 77.9601 145.254 77.4141 145.554 76.967C145.867 76.5737 146.229 76.2222 146.632 75.9212C146.997 75.6292 147.297 75.2644 147.512 74.8501C147.72 74.4227 147.862 73.9663 147.934 73.4965C148.044 73.0031 148.082 72.5308 148.137 72.0332C148.239 73.0191 148.116 74.0152 147.778 74.9471Z" fill="#32338C"/>
<path d="M145.161 81.6663C145.622 82.1221 146.212 82.4254 146.852 82.535C147.51 82.5801 148.168 82.4552 148.763 82.1723C149.391 81.9026 149.976 81.5401 150.496 81.097C150.072 81.663 149.526 82.127 148.898 82.4548C148.259 82.8258 147.522 82.9935 146.784 82.9356C146.054 82.817 145.389 82.4451 144.907 81.8856C144.465 81.3454 144.121 80.7315 143.893 80.0723C144.26 80.6455 144.685 81.1796 145.161 81.6663Z" fill="#32338C"/>
<path d="M115.935 111.833C116.079 110.328 116.54 108.801 117.571 107.692C117.825 107.426 118.252 107.178 118.527 107.422C118.603 107.516 118.655 107.626 118.681 107.744C118.707 107.862 118.705 107.984 118.675 108.101C118.527 109.324 118.21 110.526 118.079 111.753C117.887 112.981 118.066 114.237 118.594 115.363C118.679 113.495 118.818 111.567 119.761 109.94C120.021 109.461 120.39 109.051 120.839 108.742C120.918 108.676 121.014 108.633 121.116 108.621C121.218 108.608 121.322 108.625 121.414 108.67C121.472 108.724 121.519 108.789 121.549 108.862C121.58 108.935 121.594 109.013 121.592 109.092C121.639 109.485 121.646 109.882 121.613 110.277C121.774 109.911 122.014 109.584 122.315 109.32C122.466 109.182 122.659 109.097 122.864 109.078C123.069 109.06 123.274 109.109 123.448 109.219C123.82 109.51 123.79 110.062 123.727 110.539C123.87 110.313 124.076 110.134 124.321 110.025C124.565 109.917 124.837 109.882 125.101 109.927C125.473 110.61 125.261 111.449 125.101 112.208C124.882 113.167 124.74 114.141 124.678 115.122C124.695 115.708 124.564 116.288 124.297 116.809C124.107 117.1 123.904 118.298 121.596 118.281C120.659 118.216 119.738 118.008 118.865 117.665C117.884 117.353 117.061 116.677 116.565 115.776C115.97 114.552 115.751 113.181 115.935 111.833Z" fill="#FE814B"/>
<path d="M121.076 112.108C120.919 112.77 120.792 113.441 120.708 114.116C120.615 114.788 120.556 115.465 120.53 116.144C120.505 116.827 120.53 117.51 120.53 118.198C120.374 117.523 120.285 116.836 120.264 116.144C120.239 115.451 120.273 114.757 120.365 114.069C120.459 113.382 120.61 112.703 120.818 112.041C121.027 111.381 121.3 110.742 121.634 110.135C121.427 110.793 121.232 111.446 121.076 112.108Z" fill="#32338C"/>
<path d="M123.384 112.315C123.291 112.926 123.215 113.537 123.177 114.149C123.139 114.76 123.118 115.38 123.122 116C123.126 116.62 123.168 117.236 123.211 117.86C123.038 117.256 122.923 116.638 122.868 116.013C122.81 115.386 122.803 114.756 122.847 114.128C122.892 113.5 122.988 112.876 123.135 112.264C123.277 111.653 123.477 111.058 123.731 110.484C123.6 111.096 123.477 111.703 123.384 112.315Z" fill="#32338C"/>
<path d="M169.529 98.1114C170.582 97.0699 172.361 97.7319 173.237 98.9295C174.112 100.127 174.175 101.717 174.108 103.193C173.85 108.831 172.302 114.317 170.704 119.732C168.62 126.795 158.131 139.324 156.668 138.822C151.388 137.021 135.911 113.158 135.911 113.158L142.341 112.314L157.269 126.483C159.078 119.85 165.656 101.962 169.529 98.1114Z" fill="#FE814B"/>
<path d="M127.159 120.292L128.525 122.144L129.895 123.995C130.351 124.61 130.812 125.226 131.256 125.854C130.706 125.315 130.195 124.737 129.696 124.168C129.197 123.598 128.724 122.974 128.263 122.354C127.802 121.735 127.362 121.089 126.952 120.453C126.542 119.816 126.136 119.128 125.777 118.445C126.25 119.057 126.703 119.677 127.159 120.292Z" fill="#32338C"/>
<path d="M142.324 112.298L142.582 104.902C142.587 104.761 142.558 104.621 142.499 104.493C142.44 104.365 142.352 104.253 142.241 104.165C142.13 104.077 142.001 104.017 141.863 103.988C141.724 103.959 141.581 103.963 141.445 103.999L141.157 104.075L140.037 103.025C139.923 102.917 139.782 102.841 139.63 102.804C139.477 102.767 139.317 102.77 139.166 102.814L138.257 103.076L136.93 102.144C136.832 102.076 136.721 102.027 136.604 102.002C136.487 101.977 136.367 101.975 136.249 101.996L135.496 102.131L135.247 102.021C135.108 101.961 134.956 101.936 134.805 101.949C134.653 101.962 134.508 102.013 134.381 102.097C134.255 102.181 134.152 102.295 134.082 102.429C134.011 102.564 133.976 102.713 133.979 102.865V107.407L135.89 113.158" fill="#FE814B"/>
<path d="M174.501 34.7256L174.581 34.6919L174.226 34.5358C171.772 33.462 169.8 31.5259 168.684 29.096L168.633 28.9863L168.371 29.5177C167.299 31.6078 165.579 33.2969 163.467 34.3334L162.71 34.7045H162.756C165.269 35.723 167.311 37.6383 168.485 40.0769L168.646 40.4227C169.784 37.839 171.883 35.7966 174.501 34.7256Z" fill="#FE814B"/>
<path d="M179.041 41.0902H179.079L178.902 41.0101C177.675 40.4691 176.69 39.4963 176.137 38.2775L176.111 38.2227L175.976 38.4925C175.441 39.5386 174.581 40.3835 173.524 40.9004L173.144 41.0902H173.169C174.424 41.6007 175.444 42.5581 176.031 43.7764L176.111 43.9366C176.682 42.6457 177.732 41.6255 179.041 41.0902Z" fill="#F8AB74"/>
<path d="M18.9148 86.658L18.9951 86.6243L18.64 86.464C16.1782 85.375 14.2072 83.4164 13.106 80.9651L13.0553 80.8555L12.7805 81.3952C11.7096 83.4863 9.98923 85.1757 7.87638 86.211L7.11963 86.5863H7.16613C9.6789 87.6065 11.721 89.5232 12.8946 91.9629L13.0595 92.3509C14.1966 89.7672 16.2963 87.7258 18.9148 86.658Z" fill="#FE814B"/>
<path d="M23.4552 92.9961H23.4932L23.3157 92.916C22.089 92.3767 21.1046 91.4053 20.5508 90.1876L20.5254 90.1328L20.3901 90.4027C19.8542 91.4479 18.9942 92.2924 17.9381 92.8106L17.5576 92.9961H17.583C18.8391 93.507 19.8594 94.4661 20.4451 95.6865L20.5254 95.8426C21.0963 94.5516 22.1464 93.5314 23.4552 92.9961Z" fill="#F8AB74"/>
<path d="M101.151 180.971L101.087 180.946L101.358 180.828C103.214 180.01 104.702 178.539 105.539 176.695L105.577 176.615L105.784 177.037C106.593 178.619 107.894 179.897 109.492 180.68L110.063 180.963H110.029C108.128 181.733 106.582 183.18 105.691 185.024L105.577 185.277C104.717 183.324 103.13 181.78 101.151 180.971Z" fill="#FE814B"/>
<path d="M97.7181 185.779H97.6885L97.8195 185.719C98.7556 185.317 99.5087 184.582 99.9334 183.657V183.615L100.039 183.818C100.443 184.608 101.092 185.248 101.891 185.639L102.178 185.779C101.229 186.165 100.457 186.889 100.014 187.811L99.9291 187.933C99.4984 186.957 98.7062 186.185 97.7181 185.779Z" fill="#F8AB74"/>
</g>
</svg>
