<svg width="199" height="196" fill="none" xmlns="http://www.w3.org/2000/svg"><mask id="a" style="mask-type:alpha" maskUnits="userSpaceOnUse" x="0" y="0" width="199" height="196"><path fill="#fff" d="M0 0h199v196H0z"/></mask><g mask="url(#a)"><path opacity=".2" d="M9.812 66.53C22.855 51.86 45.236 42 55.83 25.408 66.425 8.813 79.45-3.69 106.511.999c27.062 4.69 29.091 25.02 38.426 36.633 9.334 11.614 45.121 14.473 46.965 46.893 1.843 32.42-20.352 35-29.526 44.117-9.174 9.117-20.669 48.47-52.563 52.636-39.089 5.111-64.92-8.518-88.586-30.442C-6.739 124.927-3.23 81.202 9.812 66.531z" fill="#F8AB74"/><path fill-rule="evenodd" clip-rule="evenodd" d="M156.001 26.984v142.462H13.178V26.984H156z" fill="#91C4FB"/><path fill-rule="evenodd" clip-rule="evenodd" d="M156.001 19.832v142.462H13.178V19.832H156z" fill="#E4E7FF"/><path fill-rule="evenodd" clip-rule="evenodd" d="M156.001 19.832v24.804H13.178V19.832H156z" fill="#7371FC"/><path fill-rule="evenodd" clip-rule="evenodd" d="M26.22 33.92a4.581 4.581 0 0 1-4.587-4.575 4.581 4.581 0 0 1 4.587-4.575 4.581 4.581 0 0 1 4.587 4.575 4.581 4.581 0 0 1-4.587 4.575z" fill="#443DC3"/><path d="M24.738 30.42c-.391-.39-.61-.92-.61-1.47V8.998a2.07 2.07 0 0 1 1.285-1.922 2.084 2.084 0 0 1 1.596.001 2.08 2.08 0 0 1 1.283 1.92V28.95a2.087 2.087 0 0 1-3.554 1.47z" fill="#FE814B"/><path fill-rule="evenodd" clip-rule="evenodd" d="M40.81 33.92a4.581 4.581 0 0 1-4.587-4.575 4.581 4.581 0 0 1 4.587-4.575 4.581 4.581 0 0 1 4.587 4.575 4.581 4.581 0 0 1-4.587 4.575z" fill="#443DC3"/><path d="M40.012 30.87a2.086 2.086 0 0 1-1.128-1.125 2.073 2.073 0 0 1-.159-.796V9a2.073 2.073 0 0 1 1.287-1.92 2.09 2.09 0 0 1 2.271.45c.391.39.61.919.61 1.47v19.95c0 .552-.219 1.08-.61 1.47a2.087 2.087 0 0 1-2.271.451z" fill="#FE814B"/><path fill-rule="evenodd" clip-rule="evenodd" d="M55.403 33.92a4.581 4.581 0 0 1-4.587-4.575 4.581 4.581 0 0 1 4.587-4.575 4.581 4.581 0 0 1 4.587 4.575 4.581 4.581 0 0 1-4.587 4.575z" fill="#443DC3"/><path d="M53.93 30.42c-.391-.39-.61-.92-.61-1.47V8.998c0-.551.219-1.08.61-1.47.39-.39.92-.61 1.474-.61a2.09 2.09 0 0 1 1.933 1.282c.105.253.16.524.16.798v19.95a2.074 2.074 0 0 1-1.293 1.923 2.09 2.09 0 0 1-.8.156 2.087 2.087 0 0 1-1.474-.609z" fill="#FE814B"/><path fill-rule="evenodd" clip-rule="evenodd" d="M69.993 33.92a4.581 4.581 0 0 1-4.587-4.575 4.581 4.581 0 0 1 4.587-4.575 4.581 4.581 0 0 1 4.587 4.575 4.581 4.581 0 0 1-4.587 4.575z" fill="#443DC3"/><path d="M68.522 30.418a2.076 2.076 0 0 1-.609-1.469V9a2.069 2.069 0 0 1 1.283-1.92 2.085 2.085 0 0 1 1.595-.002A2.08 2.08 0 0 1 72.077 9v19.95c0 .552-.22 1.08-.61 1.47-.391.39-.921.61-1.474.61a2.087 2.087 0 0 1-1.47-.611z" fill="#FE814B"/><path fill-rule="evenodd" clip-rule="evenodd" d="M84.587 33.92A4.581 4.581 0 0 1 80 29.345a4.581 4.581 0 0 1 4.587-4.575 4.581 4.581 0 0 1 4.587 4.575 4.581 4.581 0 0 1-4.587 4.575z" fill="#443DC3"/><path d="M83.113 30.42c-.39-.39-.61-.92-.61-1.47V8.998c0-.551.22-1.08.61-1.47a2.087 2.087 0 0 1 2.945.001c.39.39.61.918.61 1.469v19.95a2.087 2.087 0 0 1-3.554 1.47z" fill="#FE814B"/><path fill-rule="evenodd" clip-rule="evenodd" d="M99.18 33.92a4.581 4.581 0 0 1-4.586-4.575 4.581 4.581 0 0 1 4.587-4.575 4.581 4.581 0 0 1 4.587 4.575 4.581 4.581 0 0 1-4.587 4.575z" fill="#443DC3"/><path d="M97.707 30.42c-.39-.39-.61-.92-.61-1.47V8.998a2.07 2.07 0 0 1 1.286-1.922 2.088 2.088 0 0 1 2.272.452c.391.39.61.919.61 1.47v19.95c0 .552-.219 1.08-.61 1.47a2.088 2.088 0 0 1-2.948 0z" fill="#FE814B"/><path fill-rule="evenodd" clip-rule="evenodd" d="M113.771 33.92a4.58 4.58 0 0 1-4.587-4.575 4.58 4.58 0 0 1 4.587-4.575 4.581 4.581 0 0 1 4.587 4.575 4.581 4.581 0 0 1-4.587 4.575z" fill="#443DC3"/><path d="M112.973 30.87a2.074 2.074 0 0 1-1.287-1.92V8.998a2.07 2.07 0 0 1 .61-1.47 2.092 2.092 0 0 1 1.474-.61A2.087 2.087 0 0 1 115.838 9v19.95a2.087 2.087 0 0 1-2.068 2.079c-.273 0-.544-.053-.797-.158z" fill="#FE814B"/><path fill-rule="evenodd" clip-rule="evenodd" d="M128.364 33.92a4.581 4.581 0 0 1-4.587-4.575 4.581 4.581 0 0 1 4.587-4.575 4.58 4.58 0 0 1 4.587 4.575 4.58 4.58 0 0 1-4.587 4.575z" fill="#443DC3"/><path d="M126.89 30.42a2.075 2.075 0 0 1-.61-1.47V8.998c0-.551.219-1.08.61-1.47a2.087 2.087 0 0 1 2.948 0c.391.39.61.919.61 1.47v19.95c0 .552-.219 1.08-.61 1.47a2.088 2.088 0 0 1-2.948 0z" fill="#FE814B"/><path fill-rule="evenodd" clip-rule="evenodd" d="M142.958 33.92a4.581 4.581 0 0 1-4.587-4.575 4.581 4.581 0 0 1 4.587-4.575 4.581 4.581 0 0 1 4.587 4.575 4.581 4.581 0 0 1-4.587 4.575z" fill="#443DC3"/><path d="M141.484 30.42a2.08 2.08 0 0 1-.61-1.47V8.998a2.074 2.074 0 0 1 2.084-2.079 2.08 2.08 0 0 1 2.08 2.079v19.95c0 .551-.219 1.08-.609 1.469a2.087 2.087 0 0 1-2.945.001z" fill="#FE814B"/><path fill-rule="evenodd" clip-rule="evenodd" d="M36.975 66.502v15.303H21.633V66.502h15.342zM55.564 66.502v15.303H40.222V66.502h15.342zM74.157 66.502v15.303H58.815V66.502h15.342zM92.746 66.502v15.303H77.404V66.502h15.343zM111.34 66.502v15.303H95.998V66.502h15.342zM129.933 66.502v15.303h-15.342V66.502h15.342zM148.522 66.502v15.303H133.18V66.502h15.342zM36.975 85.217v15.303H21.633V85.217h15.342zM55.564 85.217v15.303H40.222V85.217h15.342zM74.157 85.217v15.303H58.815V85.217h15.342zM92.746 85.217v15.303H77.404V85.217h15.343zM111.34 85.217v15.303H95.998V85.217h15.342zM129.933 85.217v15.303h-15.342V85.217h15.342zM148.522 85.217v15.303H133.18V85.217h15.342zM36.975 103.928v15.303H21.633v-15.303h15.342zM55.564 103.928v15.303H40.222v-15.303h15.342zM74.157 103.928v15.303H58.815v-15.303h15.342zM92.746 103.928v15.303H77.404v-15.303h15.343zM111.34 103.928v15.303H95.998v-15.303h15.342zM129.933 103.928v15.303h-15.342v-15.303h15.342zM148.522 103.928v15.303H133.18v-15.303h15.342zM36.975 122.637v15.303H21.633v-15.303h15.342zM55.564 122.637v15.303H40.222v-15.303h15.342zM74.157 122.637v15.303H58.815v-15.303h15.342zM92.746 122.637v15.303H77.404v-15.303h15.343zM111.34 122.637v15.303H95.998v-15.303h15.342zM129.933 122.637v15.303h-15.342v-15.303h15.342zM148.522 122.637v15.303H133.18v-15.303h15.342zM148.522 52.066v1.679H58.815v-1.679h89.707zM148.522 55.44v1.678H58.815V55.44h89.707zM148.522 58.818v1.679H58.815v-1.679h89.707zM148.526 143.941v1.679H21.633v-1.679h126.893zM148.526 147.314v1.679H21.633v-1.679h126.893zM148.526 150.693v1.679H21.633v-1.679h126.893z" fill="#E4E7FF" style="mix-blend-mode:multiply"/><path fill-rule="evenodd" clip-rule="evenodd" d="M55.568 52.066v8.426H22.685v-8.426h32.883z" fill="#FE814B"/><path d="M13.178 163.406h142.717M13.178 165.025h142.717M13.178 166.641h142.717M13.178 168.256h142.717" stroke="#E4E7FF" stroke-width=".211"/><path d="m64.138 70.521 1.39 2.307 2.783 4.605h-1.556a112.72 112.72 0 0 1 5.073-9.632 79.898 79.898 0 0 1 2.938-4.605 45.137 45.137 0 0 1 3.336-4.36 93.587 93.587 0 0 1-2.169 5.022 150.88 150.88 0 0 1-7.63 14.392l-.846 1.435-.694-1.422a86.24 86.24 0 0 1-1.158-2.454c-.372-.822-.723-1.657-1.074-2.492a57.844 57.844 0 0 1-.977-2.53 20.096 20.096 0 0 1-.76-2.61c.422.8.879 1.572 1.344 2.344z" fill="#32338C"/><path d="m63.432 108.611 1.39 2.307 2.778 4.626H66.05a112.662 112.662 0 0 1 5.073-9.631c.93-1.561 1.898-3.104 2.96-4.605a45.704 45.704 0 0 1 3.33-4.36 90.354 90.354 0 0 1-2.164 5.022 150.862 150.862 0 0 1-7.63 14.392l-.847 1.434-.718-1.409a99.67 99.67 0 0 1-1.154-2.454c-.372-.822-.723-1.657-1.074-2.492a57.905 57.905 0 0 1-.977-2.53 20.83 20.83 0 0 1-.765-2.644c.423.801.88 1.573 1.349 2.344z" fill="#FE814B"/><path d="M29.002 124.8a209.837 209.837 0 0 1 3.454 5.221c2.257 3.5 4.43 7.038 6.67 10.542-2.654-3.196-5.25-6.443-7.91-9.627a225.994 225.994 0 0 0-4.032-4.723c-1.366-1.561-2.76-3.058-4.203-4.441l2.25-2.079c1.365 1.687 2.578 3.374 3.77 5.107z" fill="#7371FC"/><path d="M31.94 124.92a127.19 127.19 0 0 1 3.483-4.854c1.197-1.594 2.448-3.133 3.678-4.685-1.018 1.687-2.063 3.373-3.04 5.102a128.908 128.908 0 0 0-2.798 5.213 119.924 119.924 0 0 0-4.802 10.753l-2.782-1.291a126.326 126.326 0 0 1 6.26-10.238z" fill="#7371FC"/><path d="M49.07 83.141c-2.477-.75-5.28 0-7.267 1.64a10.682 10.682 0 0 0-3.543 6.697 8.696 8.696 0 0 0 .57 4.9c1.206 2.594 3.992 4.125 6.765 4.778 3.446.806 7.377.422 10.024-1.931 2.646-2.353 3.496-6.325 2.498-9.7-.803-2.71-2.824-5.152-5.534-5.966a9.672 9.672 0 0 0-3.843-.261c-2.815.303-5.593 1.429-7.58 3.445-1.987 2.015-3.077 4.95-2.57 7.717a8.889 8.889 0 0 0 2.084 4.217c3.268 3.74 9.428 4.525 13.529 1.72 4.1-2.804 5.597-8.817 3.28-13.207-1.133-2.142-3.208-3.926-5.631-4.112-1.835-.139-3.771.612-5.462-.11" stroke="#32338C" stroke-width=".423"/><path d="m47.037 87.95 6.57 7.893-10.794-3.394 10.794-3.306-7.132 7.81.562-9.004z" fill="#32338C"/><path d="M47.874 101.443c-.964 7.553 1.881 15.401 7.123 20.933 5.243 5.533 12.717 8.78 20.327 9.349 7.61.57 15.11-1.345 21.734-5.127" stroke="#32338C" stroke-width=".846"/><path d="M90.235 125.506c2.262.422 6.824 1.02 6.824 1.02l-3.412 5.297" stroke="#32338C" stroke-width=".998"/><path d="m145.292 195.999-.706-27.697 8.079 27.697h22.102c-1.112-13.072-2.562-27.692-4.08-36.632-3.247-19.171-10.569-22.995-10.569-22.995l-26.659-.882s-9.864 13.14-9.445 30.83c.182 7.494 1.234 18.956 2.393 29.679h18.885z" fill="#32338C"/><path d="M121.287 114.068a2.419 2.419 0 0 0-1.108.249 2.101 2.101 0 0 0-.845 1.598c-.211 1.598.203 3.213.689 4.753.107.329.217.657.33.986a8.573 8.573 0 0 0 2.689-1.686 10.318 10.318 0 0 0 3.027-5.689 25.157 25.157 0 0 0-4.782-.211z" fill="#FE5228"/><path d="M139.906 92.605c-.575-.173-1.713.679-2.178.961-3.137 1.894-5.496 4.909-7.094 8.16-1.949 3.968-2.891 8.337-3.805 12.651-.245-.042-.498-.072-.748-.105a10.311 10.311 0 0 1-3.01 5.693 8.573 8.573 0 0 1-2.689 1.686c2.038 5.929 5.534 11.639 11.085 14.494.913.468 2.046.843 2.93.329.884-.514 1.116-1.733 1.234-2.775 1.269-11.217 3.805-22.257 5.399-33.436.245-1.78.465-3.673.03-5.444-.144-.578-.486-2.016-1.154-2.214z" fill="#FE814B"/><path d="M154.474 89.998s-14.179-.126-17.98 4.264c-3.801 4.39-6.819 14.051-6.819 14.051l3.805 27.178s1.488 4.664 9.508 6.667 17.151-5.786 17.151-5.786l11.601-38.59-17.266-7.784z" fill="#7371FC"/><path fill-rule="evenodd" clip-rule="evenodd" d="m175.353 125.067-7.917 15.143-3.643-1.904 7.916-15.144 3.644 1.905z" fill="#E4E7FF"/><path fill-rule="evenodd" clip-rule="evenodd" d="m179 126.971-7.917 15.144-3.643-1.905 7.916-15.144 3.644 1.905z" fill="#D0CDFF"/><path fill-rule="evenodd" clip-rule="evenodd" d="m182.673 128.865-7.915 15.145-3.643-1.904 7.914-15.145 3.644 1.904z" fill="#E4E7FF"/><path fill-rule="evenodd" clip-rule="evenodd" d="m187.611 130.565-7.845 15.216-3.661-1.887 7.845-15.216 3.661 1.887z" fill="#D0CDFF"/><path d="M196.065 135.894a5.418 5.418 0 0 1 2.655 3.177 5.4 5.4 0 0 1-.366 4.119l-2.907 5.56a5.4 5.4 0 0 1-3.175 2.652 5.418 5.418 0 0 1-4.126-.37l-9.773-5.109 7.917-15.144-.002.004 9.777 5.111z" fill="#FE814B"/><path d="m68.107 78.654 8.371 9.7c.25-.308.52-.6.753-.92a17.042 17.042 0 0 0 3.094-7.515l-12.218-1.265z" fill="#32338C"/><path d="M80.326 79.92a17.042 17.042 0 0 1-3.095 7.519c-.232.32-.503.611-.752.92l6.743 7.826 7.96-15.127-10.856-1.138z" fill="#FEC5B7"/><path fill-rule="evenodd" clip-rule="evenodd" d="m87.24 88.584 80.468 42.281-1.472 2.802-80.468-42.282 1.472-2.802zM84.294 94.19l80.468 42.281-1.009 1.92-80.467-42.282 1.008-1.92z" fill="#7355FC"/><path fill-rule="evenodd" clip-rule="evenodd" d="m85.767 91.384 80.468 42.282-1.472 2.801-80.468-42.282 1.472-2.8zM88.698 85.769l80.475 42.268-1.471 2.801L87.227 88.57l1.471-2.801z" fill="#7371FC"/><path fill-rule="evenodd" clip-rule="evenodd" d="m90.182 82.984 80.468 42.282-1.472 2.801L88.71 85.785l1.472-2.801z" fill="#7355FC"/><path fill-rule="evenodd" clip-rule="evenodd" d="m91.234 80.98 80.467 42.282-1.052 2.002-80.467-42.282 1.052-2.002z" fill="#7371FC"/><path d="m131.907 102.342 29.201 12.718-.795 2.13-28.406-14.848zM136.595 75.837a3.436 3.436 0 0 1-2.773-1.493c-.77-1.286-.262-3.015.736-4.133-2.114-.312-4.228-1.957-4.706-4.031a5.474 5.474 0 0 1 2.156-5.617 1.17 1.17 0 0 0 .482-.49c.045-.21.027-.43-.051-.632a8.001 8.001 0 0 1 2.032-7.741 8.044 8.044 0 0 1 7.734-2.127c.224-2.066 1.691-4.094 3.382-5.275a10.845 10.845 0 0 1 5.898-1.754 9.183 9.183 0 0 1 4.553.94 5.417 5.417 0 0 1 2.82 3.568c1.573-1.48 4.283-1.531 6.249-.633a7.978 7.978 0 0 1 3.889 3.669 6.164 6.164 0 0 1 .101 5.267c2.347.122 4.676 1.851 5.611 4.002.934 2.15.262 4.959-1.691 6.24a6.658 6.658 0 0 1 1.957 2.249c.42.85.62 1.79.583 2.736a6.994 6.994 0 0 1-.329 2.459 4.763 4.763 0 0 1-3.966 3.074 3.109 3.109 0 0 1-.385 2.361 5.72 5.72 0 0 1-1.691 1.814c-.54.412-1.146.73-1.792.94a4.594 4.594 0 0 1-5.052-1.86l-22.538-4.14a8.52 8.52 0 0 1-3.209.607z" fill="#32338C"/><path d="M154.474 90.011a11.247 11.247 0 0 1-3.864 1.763 7.898 7.898 0 0 1-3.132.3c-.119 0-.233-.043-.347-.068.02.208.08.41.177.595.322.569 1.024.797 1.67.915 1.748.32 3.545.236 5.255-.245a.96.96 0 0 0 .503-.27.963.963 0 0 0 .153-.556c.087-1.104.261-2.2.52-3.277-.288.306-.6.588-.935.843z" fill="#FE814B"/><path d="M154.474 89.999c.335-.255.647-.537.935-.844.401-1.754.926-3.457 1.243-5.25-1.768-.658-4.947.844-6.367 1.894-1.831 1.328-3.141 3.458-3.179 5.714-.005.156.004.313.025.468.114.025.228.05.347.067a7.896 7.896 0 0 0 3.132-.287c1.389-.337 2.7-.935 3.864-1.762z" fill="#FE5228"/><path d="M146.882 60.733c.537 1.636.947 3.673 2.536 4.34a4.661 4.661 0 0 0 2.858.096 8.528 8.528 0 0 0 3.606-1.838c-.071 1.332-.452 3.424.326 4.508.311.412.697.762 1.137 1.033a6.825 6.825 0 0 0 4.046 1.08c-1.568 1.733-2.537 4.415-1.754 6.616a6.54 6.54 0 0 0 1.817 2.673c.157-.278.322-.556.47-.843a20.865 20.865 0 0 0 2.317-6.747 11.566 11.566 0 0 0-1.091-6.975c-1.594-2.952-4.689-4.887-7.902-5.904a13.044 13.044 0 0 0-4.866-.712c-2.194.151-5.255.986-6.865 2.61a13.24 13.24 0 0 0-2.478 3.66 21.15 21.15 0 0 0-.765 1.847 5.136 5.136 0 0 0 2.845-.287c2.072-.843 3.467-2.951 3.763-5.157z" fill="#32338C"/><path d="M161.395 69.95a6.826 6.826 0 0 1-4.046-1.079 4.156 4.156 0 0 1-1.137-1.033c-.778-1.084-.397-3.175-.325-4.508a8.539 8.539 0 0 1-3.607 1.839 4.663 4.663 0 0 1-2.858-.097c-1.593-.667-2.003-2.703-2.536-4.34-.296 2.206-1.691 4.319-3.763 5.158a5.137 5.137 0 0 1-2.841.274 24.251 24.251 0 0 0-.647 2.108 29.74 29.74 0 0 0-.718 8.506c.127 3.112.587 6.325 2.215 8.97 1.628 2.643 4.65 4.638 7.766 4.258a9.586 9.586 0 0 0 3.277-1.15c3.783-2.02 6.764-5.297 8.941-9 .123-.202.233-.421.347-.62a6.533 6.533 0 0 1-1.822-2.669c-.774-2.201.186-4.883 1.754-6.616z" fill="#FE814B"/><path d="M159.315 79.13c.055 1.013.326 2.109 1.184 2.674a2.415 2.415 0 0 0 2.169.089 5.005 5.005 0 0 0 1.763-1.367 6.96 6.96 0 0 0 1.661-2.918 3.944 3.944 0 0 0-.528-3.243c-.651-.894-1.898-1.64-2.998-1.294a4.537 4.537 0 0 0-2.54 2.23 7.337 7.337 0 0 0-.711 3.83z" fill="#FE814B"/><path d="M164.317 74.963a1.53 1.53 0 0 0-.745-.183 1.888 1.888 0 0 0-1.353.565 3.373 3.373 0 0 0-.845 1.265c-.175.489-.316.989-.423 1.497l-.296-.169a1.655 1.655 0 0 1 1.408-.49c.265.056.502.206.664.423.153.21.244.458.262.717a1.5 1.5 0 0 1-.575 1.303 2.495 2.495 0 0 1-1.298.497 2.575 2.575 0 0 0 1.188-.62 1.304 1.304 0 0 0 .423-1.151.946.946 0 0 0-.728-.843 1.372 1.372 0 0 0-1.099.421l-.422.422.139-.59a9.58 9.58 0 0 1 .482-1.544c.205-.517.531-.978.951-1.345a2.11 2.11 0 0 1 1.556-.527 1.55 1.55 0 0 1 1.273.873 1.527 1.527 0 0 0-.562-.521z" fill="#32338C"/><path d="M143.694 74.19c-.44-.034-.757-.612-.706-1.299.05-.687.452-1.21.892-1.177.439.034.744.612.706 1.3-.051.682-.453 1.21-.892 1.176zM152.572 75.475c-.439-.033-.757-.615-.706-1.303.051-.687.453-1.21.892-1.176.44.033.757.615.706 1.299-.051.683-.452 1.214-.892 1.18z" fill="#32328C"/><path d="M142.218 68.833c.313-.345.685-.63 1.099-.843.212-.11.423-.228.664-.321.236-.09.491-.116.74-.072.254.04.497.136.71.279.232.143.415.353.524.603l-.055.135c-.262.114-.469.19-.659.257-.169.064-.341.12-.516.164-.16.043-.326.056-.49.038a1.811 1.811 0 0 0-.524 0 4.31 4.31 0 0 0-1.053.342c-.365.171-.711.38-1.032.624l-.114-.093c.174-.406.412-.782.706-1.113zM154.445 70.899a4.238 4.238 0 0 0-.939-.59 1.95 1.95 0 0 0-.507-.131 1.374 1.374 0 0 1-.465-.156 5.001 5.001 0 0 1-.461-.291 6.122 6.122 0 0 1-.575-.422l-.021-.143c.17-.213.4-.372.66-.456.241-.088.5-.121.756-.097.251.021.492.109.698.253a6.3 6.3 0 0 1 .566.477c.345.312.632.684.846 1.096.209.396.351.824.423 1.265l-.136.038a5.828 5.828 0 0 0-.845-.843z" fill="#32338C"/><path d="M141.635 79.473c-.926-.114-1.594-.645-1.526-1.189.067-.544.845-.894 1.771-.78.926.114 1.594.65 1.526 1.193-.067.54-.845.89-1.771.776zM153.063 80.899c-.926-.114-1.594-.645-1.527-1.19.068-.543.846-.89 1.772-.775.926.114 1.594.65 1.526 1.189-.068.544-.846.89-1.771.776z" fill="#F8AB74" style="mix-blend-mode:multiply" opacity=".4"/><path d="M147.778 74.947a3.236 3.236 0 0 1-.913 1.202c-.38.295-.719.638-1.011 1.02a1.76 1.76 0 0 0 .389 2.383c.374.28.831.428 1.298.422.482.04.961-.097 1.349-.384-.365.34-.845.53-1.345.531a3.018 3.018 0 0 1-.752-.059 2.001 2.001 0 0 1-.71-.308 1.991 1.991 0 0 1-.846-1.265 2.069 2.069 0 0 1 .317-1.522 5.857 5.857 0 0 1 1.078-1.046c.365-.292.665-.657.88-1.07a4.73 4.73 0 0 0 .422-1.355c.11-.493.148-.965.203-1.463a6.565 6.565 0 0 1-.359 2.914zM145.161 81.666c.461.456 1.051.76 1.691.869a3.839 3.839 0 0 0 1.911-.363 6.826 6.826 0 0 0 1.733-1.075 4.733 4.733 0 0 1-1.598 1.358 3.642 3.642 0 0 1-2.114.48 3.143 3.143 0 0 1-1.877-1.05 5.922 5.922 0 0 1-1.014-1.813 9.964 9.964 0 0 0 1.268 1.594z" fill="#32338C"/><path d="M115.935 111.833c.144-1.505.605-3.032 1.636-4.141.254-.266.681-.514.956-.27a.776.776 0 0 1 .148.679c-.148 1.223-.465 2.425-.596 3.652a6.232 6.232 0 0 0 .515 3.61c.085-1.868.224-3.796 1.167-5.423.26-.479.629-.889 1.078-1.198a.53.53 0 0 1 .575-.072.55.55 0 0 1 .178.422c.047.393.054.79.021 1.185.161-.366.401-.693.702-.957a.943.943 0 0 1 1.133-.101c.372.291.342.843.279 1.32a1.354 1.354 0 0 1 1.374-.612c.372.683.16 1.522 0 2.281a18.26 18.26 0 0 0-.423 2.914 3.477 3.477 0 0 1-.381 1.687c-.19.291-.393 1.489-2.701 1.472a9.212 9.212 0 0 1-2.731-.616 4.013 4.013 0 0 1-2.3-1.889 6.886 6.886 0 0 1-.63-3.943z" fill="#FE814B"/><path d="M121.076 112.108a18.749 18.749 0 0 0-.368 2.008 20.523 20.523 0 0 0-.178 2.028c-.025.683 0 1.366 0 2.054a10.534 10.534 0 0 1-.266-2.054c-.025-.693.009-1.387.101-2.075.094-.687.245-1.366.453-2.028.209-.66.482-1.299.816-1.906a27.945 27.945 0 0 0-.558 1.973zM123.384 112.315a20.744 20.744 0 0 0-.207 1.834 27.063 27.063 0 0 0-.055 1.851c.004.62.046 1.236.089 1.86a9.838 9.838 0 0 1-.343-1.847 11.505 11.505 0 0 1 .267-3.749 9.98 9.98 0 0 1 .596-1.78 31.014 31.014 0 0 0-.347 1.831z" fill="#32338C"/><path d="M169.529 98.111c1.053-1.041 2.832-.38 3.708.819.875 1.197.938 2.787.871 4.263-.258 5.638-1.806 11.124-3.404 16.539-2.084 7.063-12.573 19.592-14.036 19.09-5.28-1.801-20.757-25.664-20.757-25.664l6.43-.844 14.928 14.169c1.809-6.633 8.387-24.521 12.26-28.372z" fill="#FE814B"/><path d="m127.159 120.292 1.366 1.852 1.37 1.851c.456.615.917 1.231 1.361 1.859a30.434 30.434 0 0 1-1.56-1.686 29.303 29.303 0 0 1-1.433-1.814 34.433 34.433 0 0 1-1.311-1.901 26.84 26.84 0 0 1-1.175-2.008c.473.612.926 1.232 1.382 1.847z" fill="#32338C"/><path d="m142.324 112.298.258-7.396a.901.901 0 0 0-.719-.914.908.908 0 0 0-.418.011l-.288.076-1.12-1.05a.903.903 0 0 0-.871-.211l-.909.262-1.327-.932a.905.905 0 0 0-.681-.148l-.753.135-.249-.11a.917.917 0 0 0-.866.076.9.9 0 0 0-.402.768v4.542l1.911 5.751M174.501 34.726l.08-.034-.355-.156a10.909 10.909 0 0 1-5.542-5.44l-.051-.11-.262.532a10.914 10.914 0 0 1-4.904 4.815l-.757.372h.046a10.9 10.9 0 0 1 5.729 5.372l.161.346a10.909 10.909 0 0 1 5.855-5.697z" fill="#FE814B"/><path d="M179.041 41.09h.038l-.177-.08a5.45 5.45 0 0 1-2.765-2.732l-.026-.055-.135.27a5.436 5.436 0 0 1-2.452 2.407l-.38.19h.025a5.46 5.46 0 0 1 2.862 2.686l.08.16a5.464 5.464 0 0 1 2.93-2.846z" fill="#F8AB74"/><path d="m18.915 86.658.08-.034-.355-.16a10.898 10.898 0 0 1-5.534-5.499l-.05-.11-.275.54a10.894 10.894 0 0 1-4.905 4.816l-.756.375h.046a10.909 10.909 0 0 1 5.729 5.377l.165.388a10.886 10.886 0 0 1 5.855-5.693z" fill="#FE814B"/><path d="M23.455 92.996h.038l-.177-.08a5.443 5.443 0 0 1-2.765-2.728l-.026-.055-.135.27a5.455 5.455 0 0 1-2.452 2.408l-.38.185h.025a5.452 5.452 0 0 1 2.862 2.69l.08.157a5.464 5.464 0 0 1 2.93-2.847z" fill="#F8AB74"/><path d="m101.151 180.971-.064-.025.271-.118a8.238 8.238 0 0 0 4.181-4.133l.038-.08.207.422a8.232 8.232 0 0 0 3.708 3.643l.571.283h-.034a8.26 8.26 0 0 0-4.338 4.061l-.114.253a8.243 8.243 0 0 0-4.426-4.306z" fill="#FE814B"/><path d="M97.718 185.779h-.03l.132-.06a4.111 4.111 0 0 0 2.113-2.062v-.042l.106.203a4.11 4.11 0 0 0 1.852 1.821l.287.14a4.123 4.123 0 0 0-2.164 2.032l-.085.122a4.133 4.133 0 0 0-2.21-2.154z" fill="#F8AB74"/></g></svg>