<svg width="16" height="16" fill="none" xmlns="http://www.w3.org/2000/svg"><path fill-rule="evenodd" clip-rule="evenodd" d="M10.006 9.998a.581.581 0 0 1-.413.174.549.549 0 0 1-.407-.174L8 8.82 6.813 10a.581.581 0 0 1-.827 0 .587.587 0 0 1 0-.827l1.187-1.18-1.187-1.187a.587.587 0 0 1 0-.826.586.586 0 0 1 .827 0L8 7.165 9.18 5.98a.586.586 0 0 1 .826 0c.227.227.227.6 0 .826L8.82 7.992l1.186 1.187a.579.579 0 0 1 0 .82zM5.113 1.332c-2.26 0-3.78 1.587-3.78 3.947v5.447c0 2.353 1.52 3.94 3.78 3.94h5.78c2.26 0 3.773-1.587 3.773-3.94V5.279c0-2.36-1.513-3.947-3.773-3.947h-5.78z" fill="#B0B5DD"/></svg>