<svg width="24" height="24" fill="none" xmlns="http://www.w3.org/2000/svg"><path clip-rule="evenodd" d="M5.967 17.916c0-1.962 2.749-3.67 6.006-3.67 3.239 0 6.006 1.692 6.006 3.653s-2.75 2.47-6.006 2.47c-3.24 0-6.006-.49-6.006-2.453zM15.823 7.6a3.85 3.85 0 0 0-7.7 0 3.837 3.837 0 0 0 3.823 3.849h.027a3.85 3.85 0 0 0 3.85-3.849z" stroke="#fff" stroke-width="1.5" stroke-linecap="round" stroke-linejoin="round"/><path d="M18.362 10.391a2.901 2.901 0 0 0-.166-5.643M18.943 13.545c1.754 0 3.252 1.189 3.252 2.25 0 .626-.517 1.307-1.3 1.49M5.584 10.391a2.9 2.9 0 0 1 .165-5.643M5.002 13.545c-1.754 0-3.252 1.189-3.252 2.25 0 .626.517 1.307 1.302 1.49" stroke="#fff" stroke-width="1.5" stroke-linecap="round" stroke-linejoin="round"/></svg>