<svg width="24" height="24" fill="none" xmlns="http://www.w3.org/2000/svg"><path d="M11.96 16.519V13.89M21.09 11.479l-.03.02c-2.421 1.492-5.62 2.393-9.103 2.393-3.484 0-6.673-.9-9.094-2.393l-.03-.02" stroke="#fff" stroke-width="1.5" stroke-linecap="round" stroke-linejoin="round"/><path clip-rule="evenodd" d="M11.961 5.148c6.909 0 9.211 2.051 9.211 8.203 0 6.152-2.302 8.203-9.211 8.203-6.908 0-9.211-2.05-9.211-8.203 0-6.152 2.303-8.203 9.211-8.203z" stroke="#fff" stroke-width="1.5" stroke-linecap="round" stroke-linejoin="round"/><path d="M15.224 5.37v-.63c0-1.264-.923-2.289-2.06-2.289h-2.405c-1.137 0-2.06 1.025-2.06 2.29v.63" stroke="#fff" stroke-width="1.5" stroke-linecap="round" stroke-linejoin="round"/></svg>